<?xml version="1.0" standalone="no"?>
<!DOCTYPE svg PUBLIC "-//W3C//DTD SVG 20010904//EN"
 "http://www.w3.org/TR/2001/REC-SVG-20010904/DTD/svg10.dtd">
<svg version="1.0" xmlns="http://www.w3.org/2000/svg"
 width="2688.000000pt" height="2688.000000pt" viewBox="0 0 2688.000000 2688.000000"
 preserveAspectRatio="xMidYMid meet">
<metadata>
Created by potrace 1.14, written by Peter Selinger 2001-2017
</metadata>
<g transform="translate(0.000000,2688.000000) scale(0.100000,-0.100000)"
fill="#000000" stroke="none">
<path d="M13595 22561 c-143 -4 -267 -10 -275 -16 -8 -5 -75 -13 -150 -17
-259 -15 -305 -19 -360 -32 -81 -21 -171 -36 -211 -36 -19 0 -64 -9 -101 -19
-36 -11 -108 -24 -160 -31 -51 -6 -131 -20 -178 -31 -47 -10 -107 -22 -135
-25 -27 -3 -70 -14 -95 -25 -25 -10 -76 -26 -115 -34 -114 -23 -238 -56 -273
-71 -18 -8 -64 -19 -103 -25 -39 -6 -85 -19 -102 -29 -18 -10 -48 -21 -67 -25
-19 -4 -46 -14 -59 -22 -14 -9 -54 -24 -90 -34 -76 -20 -186 -59 -219 -78 -13
-7 -45 -18 -70 -26 -48 -13 -145 -51 -218 -86 -22 -10 -48 -19 -58 -19 -9 0
-46 -13 -81 -30 -35 -16 -71 -30 -78 -30 -8 0 -20 -6 -26 -13 -6 -8 -29 -19
-50 -26 -22 -6 -65 -25 -96 -41 -32 -17 -63 -30 -70 -30 -7 0 -18 -6 -24 -14
-7 -8 -24 -17 -38 -21 -14 -3 -40 -16 -57 -29 -17 -13 -62 -37 -101 -55 -38
-18 -99 -47 -135 -66 -36 -19 -85 -45 -110 -57 -25 -13 -47 -27 -48 -31 -4 -7
-48 -33 -141 -81 -20 -10 -45 -30 -57 -44 l-22 -25 30 -71 c17 -40 47 -88 69
-111 43 -44 50 -80 20 -90 -11 -3 -23 -15 -26 -25 -3 -10 -23 -24 -43 -31 -35
-11 -69 -34 -117 -77 -11 -10 -31 -26 -45 -35 -14 -10 -45 -33 -70 -52 -25
-19 -54 -39 -65 -44 -19 -8 -48 -31 -118 -93 -18 -16 -36 -28 -42 -28 -6 0
-16 -9 -23 -20 -7 -11 -17 -20 -22 -20 -11 0 -79 -51 -120 -89 -14 -12 -43
-36 -65 -52 -75 -55 -87 -64 -111 -86 -13 -12 -44 -36 -69 -53 -25 -18 -59
-45 -76 -61 -16 -16 -36 -29 -43 -29 -7 0 -18 -11 -24 -25 -6 -14 -19 -25 -27
-25 -9 0 -20 -11 -25 -25 -5 -14 -15 -25 -22 -25 -7 0 -21 -9 -33 -19 -48 -45
-101 -98 -116 -116 -9 -11 -33 -33 -53 -50 -50 -40 -262 -255 -367 -374 -46
-52 -111 -124 -144 -160 -33 -36 -82 -94 -109 -128 -27 -35 -52 -63 -56 -63
-3 0 -26 -30 -50 -67 -49 -75 -55 -84 -97 -129 -16 -17 -34 -42 -41 -55 -6
-13 -28 -44 -47 -69 -19 -25 -42 -59 -50 -77 -8 -17 -19 -35 -25 -38 -6 -4
-22 -23 -35 -43 -133 -201 -165 -249 -177 -262 -7 -8 -19 -29 -26 -45 -19 -41
-123 -217 -139 -233 -7 -7 -13 -21 -13 -30 0 -19 -95 -173 -128 -209 -11 -12
-23 -37 -27 -55 -4 -18 -15 -44 -25 -58 -16 -23 -42 -82 -92 -204 -10 -28 -27
-61 -37 -75 -10 -14 -22 -37 -26 -51 -4 -14 -15 -38 -25 -55 -9 -16 -31 -70
-49 -120 -18 -49 -44 -114 -57 -142 -13 -29 -35 -77 -48 -105 -23 -50 -31 -70
-71 -193 -9 -27 -25 -67 -36 -87 -10 -20 -19 -43 -19 -51 0 -7 -11 -36 -25
-64 -14 -28 -34 -79 -44 -114 -11 -35 -26 -82 -35 -104 -8 -22 -15 -54 -16
-70 0 -17 -8 -46 -18 -65 -11 -19 -22 -57 -25 -84 -4 -27 -16 -63 -26 -80 -11
-17 -25 -63 -32 -101 -6 -39 -19 -90 -29 -115 -10 -25 -21 -83 -25 -130 -4
-47 -13 -101 -21 -120 -8 -19 -20 -71 -25 -115 -6 -44 -20 -97 -30 -119 -11
-21 -24 -75 -30 -120 -5 -44 -16 -101 -23 -126 -8 -25 -19 -103 -26 -175 -6
-71 -16 -147 -21 -169 -6 -21 -17 -113 -24 -205 -8 -91 -21 -193 -30 -226 -45
-170 -40 -1250 6 -1337 6 -12 15 -109 20 -217 5 -116 17 -239 29 -301 10 -58
24 -159 30 -224 7 -65 16 -131 22 -145 5 -14 16 -75 24 -135 8 -60 19 -115 25
-122 6 -7 19 -52 29 -101 10 -48 23 -101 29 -117 7 -17 16 -63 21 -104 6 -41
15 -80 20 -87 6 -7 17 -50 25 -95 8 -46 21 -90 29 -99 8 -9 22 -45 31 -80 9
-35 23 -74 32 -87 8 -13 17 -50 20 -84 4 -38 10 -60 18 -60 7 0 15 -17 19 -37
9 -58 7 -123 -4 -123 -6 0 -9 -27 -9 -62 1 -35 4 -49 6 -33 7 58 13 73 32 78
16 4 21 -3 30 -39 16 -62 14 -104 -4 -104 -41 0 -35 -92 6 -103 14 -4 19 -14
19 -40 0 -24 9 -43 30 -65 17 -18 30 -40 30 -49 0 -10 12 -38 27 -63 16 -28
25 -58 24 -78 -1 -23 6 -43 24 -63 14 -17 25 -41 25 -53 0 -13 14 -37 30 -54
16 -18 30 -38 30 -46 0 -7 16 -33 35 -57 19 -24 35 -50 35 -57 0 -7 11 -24 25
-38 14 -14 30 -46 36 -72 5 -25 14 -51 19 -57 4 -5 27 -46 49 -89 23 -44 50
-89 60 -100 11 -12 27 -40 36 -63 10 -24 21 -43 26 -43 4 0 13 -17 19 -39 5
-21 17 -44 25 -51 7 -6 19 -27 25 -46 6 -19 15 -34 20 -34 4 0 21 -24 38 -53
16 -28 43 -67 61 -86 17 -18 31 -36 31 -41 0 -4 9 -15 20 -25 11 -10 20 -23
20 -29 0 -14 47 -82 102 -147 26 -31 48 -64 48 -73 0 -9 17 -33 38 -54 87 -87
289 -363 333 -454 37 -78 65 -128 77 -140 7 -7 12 -23 12 -36 0 -22 20 -43
303 -319 11 -10 81 -81 157 -158 174 -178 266 -265 278 -265 5 0 45 -36 89
-79 44 -43 90 -82 102 -86 11 -3 21 -12 21 -19 0 -8 7 -19 15 -26 21 -18 19
-27 -10 -34 -17 -4 -25 -13 -25 -27 0 -19 -5 -21 -37 -16 -34 4 -124 35 -248
85 -22 9 -52 25 -67 36 -26 18 -58 17 -58 -3 0 -5 35 -45 78 -88 75 -78 164
-143 213 -158 13 -4 40 -17 59 -28 31 -19 50 -22 160 -22 116 0 129 2 181 28
31 15 62 27 69 27 20 0 220 108 256 138 18 15 49 38 69 52 43 30 100 72 135
99 58 46 177 142 195 158 11 10 56 49 100 87 105 91 402 386 451 448 22 27 48
61 59 74 11 13 30 37 42 52 13 15 35 45 49 67 33 49 113 164 154 223 16 23 39
59 51 80 58 104 72 128 83 142 11 14 50 98 95 205 11 28 26 73 32 100 6 28 18
60 25 72 8 13 21 55 29 95 9 40 22 90 30 110 8 20 19 79 25 130 6 51 17 127
25 168 21 108 33 263 41 518 7 210 8 224 28 237 11 8 16 15 11 15 -29 1 26 20
57 20 20 0 38 5 40 11 3 9 49 19 161 36 20 3 37 9 37 13 0 12 38 19 75 13 21
-3 32 -10 29 -18 -3 -8 11 -16 40 -24 61 -15 86 -14 86 4 0 9 9 15 25 15 16 0
25 -6 25 -15 0 -9 9 -15 25 -15 32 0 88 -28 80 -40 -8 -13 23 -27 80 -35 55
-9 151 -39 170 -55 6 -5 28 -13 49 -17 20 -5 36 -12 36 -17 -1 -4 15 -19 35
-33 19 -13 33 -28 30 -32 -2 -5 10 -14 28 -21 82 -30 103 -45 98 -74 -3 -17
22 -36 50 -36 24 0 29 -5 34 -34 12 -60 1 -629 -12 -651 -6 -12 -19 -77 -28
-145 -9 -69 -22 -145 -30 -170 -7 -25 -19 -69 -25 -99 -6 -30 -15 -60 -20 -66
-5 -7 -21 -43 -34 -81 -13 -38 -36 -102 -50 -143 -14 -40 -50 -123 -80 -185
-29 -61 -72 -150 -94 -197 -40 -86 -75 -144 -112 -187 -11 -13 -20 -29 -20
-35 0 -11 -42 -79 -75 -122 -30 -39 -64 -90 -81 -120 -9 -16 -23 -35 -30 -43
-8 -7 -14 -17 -14 -22 0 -13 -176 -226 -285 -344 -11 -12 -27 -33 -36 -46 -30
-45 -258 -297 -389 -429 -116 -118 -197 -219 -202 -253 -4 -28 -1 -32 40 -49
24 -11 55 -28 69 -38 13 -11 37 -22 52 -26 16 -3 37 -15 47 -26 9 -10 21 -19
26 -19 4 0 36 -13 70 -29 35 -16 79 -32 98 -36 19 -4 51 -15 70 -25 20 -10 58
-21 85 -25 28 -4 59 -16 71 -26 11 -11 47 -24 80 -30 32 -6 66 -17 75 -25 8
-7 46 -20 85 -28 38 -8 88 -21 111 -30 22 -8 72 -18 110 -22 43 -4 78 -13 96
-26 16 -11 55 -24 88 -28 33 -5 79 -17 102 -28 23 -11 74 -23 112 -27 39 -4
75 -11 80 -15 14 -11 113 -28 220 -36 50 -4 108 -13 130 -21 22 -7 94 -20 160
-28 66 -8 138 -21 161 -29 22 -8 107 -19 190 -25 82 -6 167 -16 189 -21 81
-20 595 -32 859 -20 138 6 267 15 286 20 19 5 107 14 195 21 88 6 182 18 210
26 27 8 102 19 165 25 63 5 133 17 155 25 22 9 94 19 160 25 68 5 144 17 175
27 30 11 90 24 133 29 43 6 86 17 95 25 9 8 51 19 92 25 44 7 79 17 86 26 7
10 44 18 120 26 84 9 114 16 130 31 12 11 34 19 56 19 58 0 97 11 103 30 4 13
20 19 62 22 42 4 61 10 74 26 15 20 27 22 101 21 45 -1 74 -3 63 -6 -11 -3
-30 -15 -43 -26 l-23 -21 22 -8 c14 -5 32 -3 52 7 16 8 34 15 40 15 5 0 23 6
40 14 18 8 44 17 58 20 42 9 82 53 75 81 -6 23 -3 25 26 25 21 0 28 -3 20 -8
-15 -10 -6 -38 15 -46 19 -8 64 4 58 15 -3 4 2 12 12 17 30 15 129 35 144 29
8 -3 5 -6 -8 -6 -17 -1 -23 -7 -23 -25 0 -20 -6 -24 -48 -30 -36 -5 -50 -11
-57 -29 -8 -17 -19 -23 -55 -25 -69 -4 -87 -10 -93 -32 -3 -13 -13 -20 -30
-20 -37 0 -77 -17 -77 -33 0 -10 -17 -17 -51 -21 -37 -5 -52 -12 -56 -25 -4
-14 -22 -21 -76 -30 -39 -7 -79 -18 -87 -26 -9 -8 -41 -19 -70 -25 -30 -6 -63
-19 -74 -29 -12 -10 -41 -21 -64 -24 -24 -3 -54 -15 -66 -26 -14 -13 -45 -24
-88 -30 -36 -5 -79 -16 -96 -25 -17 -9 -66 -21 -109 -28 -43 -6 -89 -19 -103
-29 -14 -9 -51 -20 -84 -23 -32 -4 -70 -15 -85 -25 -16 -11 -54 -21 -96 -25
-38 -4 -88 -16 -110 -26 -23 -10 -90 -23 -154 -30 -63 -7 -136 -18 -162 -26
-27 -8 -113 -21 -193 -28 -79 -8 -154 -20 -167 -27 -14 -7 -97 -15 -214 -21
-104 -4 -320 -17 -479 -28 -160 -12 -319 -18 -355 -16 -36 3 -149 12 -251 21
-102 8 -246 19 -320 25 -74 5 -153 16 -175 23 -22 8 -91 18 -154 22 -63 4
-139 13 -169 21 -30 8 -115 21 -187 29 -73 8 -148 22 -168 30 -20 8 -72 20
-114 26 -43 5 -93 17 -111 25 -18 8 -60 20 -95 26 -34 6 -74 17 -90 25 -15 7
-75 22 -133 33 -58 10 -111 23 -118 29 -6 5 -39 14 -72 20 -33 5 -75 18 -94
29 -19 11 -56 22 -83 26 -26 3 -60 12 -76 20 -15 8 -99 24 -185 35 -86 11
-161 23 -166 26 -5 3 -62 10 -127 16 -70 6 -135 18 -163 29 -25 10 -75 23
-111 29 -36 5 -89 21 -118 35 l-51 26 -32 -22 c-17 -13 -47 -40 -67 -62 -20
-21 -44 -47 -53 -57 -9 -10 -59 -67 -111 -126 -51 -59 -110 -126 -131 -148
-67 -71 -88 -103 -81 -123 8 -29 30 -31 141 -16 152 21 232 56 339 153 80 72
173 92 431 92 186 -1 331 -15 412 -40 31 -10 78 -21 104 -25 26 -4 57 -15 70
-25 13 -10 43 -22 68 -26 24 -4 56 -15 69 -24 14 -9 50 -21 82 -28 31 -6 77
-21 102 -32 25 -12 52 -21 60 -21 8 0 34 -11 58 -23 24 -13 62 -27 84 -31 22
-4 55 -16 73 -26 17 -11 68 -24 112 -29 43 -6 94 -17 113 -24 19 -8 67 -20
108 -27 41 -7 94 -20 119 -30 25 -10 75 -21 111 -24 37 -4 82 -16 101 -26 21
-11 67 -20 123 -25 50 -3 144 -15 210 -25 104 -16 233 -26 730 -56 142 -8 837
27 1000 51 55 8 159 19 231 24 83 6 143 15 162 25 16 8 69 20 118 26 49 5 123
19 164 29 41 11 111 26 155 34 178 33 253 51 306 73 31 13 66 24 78 24 12 0
38 7 59 16 35 16 123 42 277 84 39 11 88 29 110 40 21 11 49 20 61 20 12 0 32
8 45 19 14 10 40 23 59 29 64 19 250 98 290 123 8 5 31 16 50 24 150 64 541
266 667 345 125 77 345 219 433 279 41 29 104 71 139 94 69 46 85 57 147 102
23 17 52 37 64 45 37 26 113 83 175 133 33 26 75 60 94 75 19 15 53 43 75 63
23 20 64 56 92 80 28 24 107 96 175 159 187 174 261 232 397 314 8 5 12 1 12
-12 0 -13 -9 -22 -25 -26 -16 -4 -25 -13 -25 -26 0 -10 -9 -22 -20 -25 -11 -3
-23 -17 -26 -31 -3 -13 -13 -24 -20 -24 -8 0 -19 -11 -24 -24 -9 -24 -63 -83
-250 -271 -49 -49 -95 -96 -102 -103 -64 -66 -133 -129 -149 -136 -10 -5 -21
-16 -24 -25 -3 -9 -30 -36 -61 -61 -31 -25 -88 -73 -128 -108 -39 -35 -96 -82
-126 -105 -30 -23 -77 -60 -105 -82 -45 -37 -78 -61 -123 -90 -9 -5 -38 -25
-65 -43 -27 -17 -53 -32 -57 -32 -5 0 -11 -8 -14 -18 -4 -10 -22 -26 -41 -35
-19 -9 -35 -21 -35 -27 0 -5 -13 -10 -28 -10 -16 0 -38 -9 -50 -21 -13 -11
-39 -27 -58 -35 -20 -8 -38 -23 -41 -33 -3 -11 -20 -22 -41 -27 -22 -5 -37
-15 -37 -24 0 -24 45 -24 78 0 16 12 41 25 56 29 14 4 31 17 36 29 6 14 26 27
49 34 22 7 41 20 44 30 2 10 12 18 22 18 26 0 140 62 151 82 5 10 16 18 24 18
7 0 22 11 33 24 10 13 37 29 59 35 23 6 44 18 47 26 3 8 12 15 21 15 8 0 24 9
35 20 21 21 87 66 129 89 14 8 30 20 34 28 4 7 16 13 26 13 10 0 24 7 31 15
18 22 30 18 30 -9 0 -15 -11 -33 -27 -45 -16 -12 -40 -32 -56 -46 -15 -14 -31
-25 -36 -25 -6 0 -13 -9 -16 -20 -3 -11 -17 -23 -30 -26 -13 -3 -31 -17 -40
-30 -8 -13 -20 -24 -26 -24 -6 0 -25 -11 -43 -25 -18 -14 -39 -25 -47 -25 -8
0 -26 -12 -40 -27 -48 -51 -89 -83 -107 -83 -10 0 -29 -11 -42 -25 -16 -17
-34 -25 -57 -25 -26 0 -34 -5 -39 -24 -4 -17 -15 -27 -34 -31 -16 -4 -32 -15
-35 -25 -3 -11 -20 -22 -38 -26 -18 -3 -42 -17 -54 -30 -15 -17 -33 -24 -58
-24 -29 0 -37 -5 -45 -25 -5 -14 -16 -25 -25 -25 -8 0 -25 -11 -36 -25 -12
-13 -36 -27 -53 -31 -17 -4 -41 -17 -53 -30 -15 -16 -33 -24 -55 -24 -25 0
-36 -6 -43 -22 -7 -16 -23 -26 -52 -32 -27 -5 -45 -15 -48 -27 -4 -11 -20 -20
-46 -24 -22 -4 -51 -18 -64 -31 -14 -14 -36 -24 -53 -24 -16 0 -37 -9 -47 -20
-11 -12 -37 -22 -66 -26 -32 -4 -57 -15 -73 -31 -15 -15 -41 -27 -66 -30 -25
-4 -45 -13 -51 -24 -5 -10 -26 -21 -46 -25 -20 -4 -45 -15 -56 -24 -21 -21
-69 -30 -154 -30 -56 0 -62 -2 -65 -22 -2 -13 -10 -24 -18 -25 -70 -9 -88 -15
-93 -32 -3 -13 -18 -19 -57 -24 -49 -6 -63 -14 -73 -42 -2 -6 -57 -11 -125
-14 -117 -3 -121 -4 -119 -25 2 -20 -3 -21 -75 -24 -68 -2 -78 -5 -78 -21 0
-19 45 -35 65 -23 5 4 19 5 31 4 11 -2 32 6 46 18 42 33 83 23 51 -12 -14 -16
-15 -23 -5 -38 33 -53 -4 -78 -81 -56 -63 18 -101 12 -122 -20 -9 -14 -25 -24
-38 -24 -27 0 -50 -16 -65 -45 -9 -17 -19 -19 -80 -17 -63 3 -71 1 -86 -19
-13 -20 -23 -22 -75 -20 -62 2 -90 -7 -129 -43 -22 -19 -25 -20 -50 -5 -44 24
-96 10 -141 -40 -38 -42 -39 -43 -64 -26 -20 13 -37 15 -74 9 -40 -6 -57 -16
-109 -65 -58 -56 -63 -59 -111 -59 -75 0 -93 -35 -30 -59 22 -9 33 -7 52 5 43
28 148 35 200 13 17 -7 35 -11 40 -10 6 1 4 -3 -2 -10 -19 -19 -16 -26 10 -33
38 -9 188 12 207 29 10 9 58 22 109 29 87 13 119 29 121 58 0 4 10 4 23 -1 40
-14 205 -3 245 18 20 10 61 21 91 24 32 4 63 14 75 26 13 11 44 21 81 26 39 4
73 15 97 32 29 20 53 26 120 30 57 4 86 11 94 21 6 8 37 18 68 23 40 5 62 14
72 27 8 11 31 22 55 26 23 4 53 15 66 26 14 11 41 22 62 26 20 3 55 17 78 30
27 15 57 24 86 24 30 0 53 7 71 21 14 11 42 25 62 30 19 6 51 21 71 35 20 13
47 24 61 24 14 0 35 9 47 20 12 11 42 24 67 28 25 5 58 19 73 31 15 11 36 21
46 21 9 0 30 11 46 24 15 13 39 27 53 31 14 4 35 16 48 26 12 9 40 20 61 24
22 3 49 17 62 31 12 13 30 24 39 24 9 0 30 11 46 25 15 13 41 27 56 30 16 4
33 15 38 25 6 11 27 22 46 26 20 4 45 15 56 26 10 10 32 21 48 24 16 4 36 17
45 30 8 13 22 24 29 24 8 0 28 14 44 30 17 17 39 30 49 30 11 0 29 13 41 29
l21 29 -21 -6 c-14 -3 -19 -1 -14 6 6 10 17 10 63 -4 16 -4 25 1 38 20 10 14
25 26 35 26 10 0 25 11 34 25 9 14 22 25 29 25 7 0 28 11 47 25 19 14 41 25
51 25 9 0 24 11 33 25 9 14 22 25 29 25 7 0 37 23 67 51 30 27 67 52 81 55 15
4 32 19 43 37 11 21 35 41 69 57 48 23 66 36 123 90 12 11 26 20 32 20 6 0 37
25 69 55 32 30 67 58 78 61 12 3 25 15 30 27 6 12 20 23 31 25 12 2 24 12 27
23 3 11 15 23 26 26 11 3 23 13 26 22 3 10 19 27 35 39 26 20 45 62 21 47 -5
-3 -13 0 -17 6 -4 8 -3 9 4 5 13 -8 36 30 26 45 -4 7 24 41 65 80 66 62 91
102 91 147 0 23 -30 25 -53 4 -12 -12 -40 -28 -62 -38 -22 -9 -59 -31 -82 -50
-23 -19 -47 -34 -54 -34 -6 0 -17 -7 -24 -16 -10 -15 -16 -15 -49 -3 -33 12
-41 11 -66 -3 -27 -15 -28 -15 -23 0 6 15 4 15 -15 -1 -12 -11 -26 -16 -33
-11 -7 4 -10 3 -7 -2 3 -5 -8 -21 -23 -36 -16 -15 -29 -24 -29 -21 0 3 -9 -2
-19 -11 -18 -16 -52 -22 -103 -17 -26 2 -22 19 5 23 14 2 23 11 25 25 2 12 13
24 27 27 13 3 27 15 30 26 4 13 19 23 36 27 16 3 39 18 50 34 11 16 26 29 33
29 7 0 18 11 24 25 6 14 19 25 27 25 8 0 21 11 27 25 6 14 16 25 21 25 13 0
87 75 87 89 0 6 7 11 15 11 9 0 24 13 33 30 9 16 25 30 35 30 11 0 21 8 24 19
2 10 16 24 29 30 13 6 24 18 24 26 0 9 12 20 26 25 14 6 28 19 31 29 3 11 14
21 25 24 11 3 22 15 25 26 3 11 13 23 24 26 10 3 21 14 24 24 3 10 17 23 30
29 14 6 25 19 25 27 0 8 11 21 25 27 14 6 25 16 25 22 0 6 12 22 26 36 33 33
121 130 159 176 17 20 42 50 58 67 15 16 27 36 27 44 0 7 8 17 18 20 29 11
132 127 132 148 0 8 6 18 14 22 19 11 96 115 96 130 0 7 9 17 20 23 11 6 20
16 20 24 0 7 16 31 35 53 19 23 35 46 35 52 0 6 9 15 19 21 11 5 23 20 27 32
4 13 17 36 30 51 13 16 24 37 24 47 0 10 11 25 25 34 14 9 25 22 25 29 1 6 14
28 30 47 17 19 30 40 30 47 0 7 5 13 11 13 5 0 17 17 26 38 8 20 27 51 42 69
49 60 71 91 71 100 0 5 11 24 25 43 14 19 25 41 25 50 0 10 11 29 24 43 13 14
27 40 31 57 4 17 13 34 20 36 10 4 45 67 94 174 7 14 25 48 41 75 16 28 38 69
49 91 12 23 27 47 35 53 8 7 18 27 21 44 4 18 15 46 25 62 10 17 21 44 25 62
3 17 13 37 20 43 8 6 22 33 31 58 10 26 23 54 29 62 7 8 20 38 28 65 39 122
68 197 81 211 9 8 21 34 27 57 6 23 17 49 24 57 7 8 17 33 20 55 4 22 15 54
23 70 8 17 21 59 29 93 7 35 22 75 32 88 11 14 22 43 26 66 4 23 16 55 26 72
10 17 21 51 25 76 4 25 13 54 20 65 7 11 19 59 27 105 7 47 21 97 29 110 9 14
21 51 27 82 6 32 17 68 26 82 9 13 18 48 22 77 3 30 12 66 20 82 7 15 20 78
29 140 8 61 23 130 33 152 11 23 22 77 26 125 4 47 16 110 25 141 10 31 21
103 25 160 3 57 13 138 20 179 8 41 19 143 25 225 13 172 26 315 40 430 22
171 10 1074 -15 1147 -2 7 -11 110 -20 228 -9 118 -22 251 -30 295 -8 44 -19
132 -26 195 -6 63 -18 131 -26 150 -8 19 -21 82 -28 139 -9 64 -20 110 -30
121 -10 11 -19 51 -25 108 -5 50 -16 106 -24 124 -8 18 -20 71 -26 118 -6 46
-18 96 -25 110 -7 14 -20 61 -29 105 -9 45 -23 85 -32 92 -10 7 -19 38 -25 83
-10 79 -15 94 -31 84 -14 -9 -2 -156 17 -202 9 -19 20 -67 26 -106 6 -39 19
-87 29 -107 10 -20 23 -68 29 -107 7 -47 18 -79 31 -92 16 -16 20 -33 20 -83
0 -35 9 -97 19 -138 11 -41 25 -132 31 -204 7 -71 18 -150 26 -175 8 -25 19
-110 24 -190 6 -80 15 -167 21 -195 21 -109 28 -204 39 -555 16 -463 0 -1098
-30 -1202 -6 -20 -17 -104 -24 -186 -8 -82 -19 -159 -25 -171 -7 -12 -16 -81
-21 -154 -5 -72 -14 -148 -20 -167 -6 -19 -19 -85 -30 -147 -10 -61 -26 -123
-35 -136 -9 -14 -20 -60 -24 -103 -7 -54 -14 -82 -26 -90 -13 -10 -19 -36 -24
-108 -5 -64 -13 -102 -23 -113 -9 -10 -21 -52 -28 -93 -7 -41 -20 -89 -31
-105 -10 -17 -21 -50 -25 -73 -3 -23 -17 -56 -30 -74 -16 -21 -24 -46 -24 -72
0 -23 -7 -52 -15 -66 -22 -39 -23 -41 -35 -102 -6 -32 -18 -65 -27 -73 -8 -9
-19 -34 -25 -57 -5 -23 -20 -54 -33 -70 -14 -16 -25 -39 -25 -51 0 -11 -9 -39
-19 -61 -11 -23 -26 -67 -35 -98 -9 -32 -20 -58 -25 -58 -5 0 -14 -19 -19 -43
-6 -24 -21 -54 -32 -67 -11 -13 -23 -35 -27 -49 -3 -14 -16 -46 -29 -71 -13
-25 -24 -52 -24 -60 0 -8 -11 -35 -24 -60 -13 -25 -27 -56 -31 -70 -4 -14 -18
-38 -31 -53 -13 -16 -24 -37 -24 -46 0 -10 -9 -30 -20 -44 -12 -14 -26 -41
-32 -59 -6 -18 -16 -40 -23 -48 -7 -8 -18 -32 -24 -52 -7 -20 -19 -42 -27 -49
-8 -7 -21 -26 -28 -43 -8 -17 -23 -42 -35 -55 -11 -13 -21 -29 -21 -36 0 -6
-11 -26 -25 -45 -14 -19 -25 -40 -25 -47 0 -15 -58 -106 -88 -138 -10 -11 -24
-34 -31 -52 -7 -17 -19 -34 -27 -37 -8 -3 -14 -16 -14 -29 0 -13 -9 -33 -21
-45 -11 -13 -27 -38 -35 -57 -7 -19 -23 -39 -34 -45 -11 -6 -20 -18 -20 -26 0
-8 -11 -25 -24 -37 -14 -13 -28 -35 -31 -50 -4 -15 -15 -33 -25 -40 -10 -7
-19 -21 -21 -32 -2 -11 -14 -24 -26 -29 -11 -6 -28 -25 -37 -43 -20 -42 -36
-42 -36 0 0 21 7 36 20 45 11 7 20 19 20 26 0 8 14 24 30 36 17 12 30 29 30
39 0 10 8 29 18 42 10 13 25 40 32 59 19 47 67 117 85 124 8 3 15 11 15 17 0
12 53 131 71 159 5 8 16 29 24 46 7 17 21 37 31 45 9 7 25 32 35 54 10 22 23
47 28 55 16 26 71 148 71 159 0 5 11 22 24 38 13 15 27 39 31 53 4 14 14 36
23 50 9 14 24 45 33 70 38 102 61 155 80 178 10 14 19 32 19 41 0 9 11 34 25
56 13 22 25 48 25 57 0 18 48 146 79 213 10 22 24 59 30 81 6 23 18 47 26 54
8 7 15 24 15 39 1 14 10 51 21 81 11 30 27 80 35 110 9 29 22 63 30 74 8 11
14 29 14 39 0 11 11 45 24 76 14 31 30 89 36 129 6 41 17 90 25 110 9 19 22
66 30 103 7 37 20 78 28 91 8 13 18 45 22 73 4 27 15 66 26 86 10 20 23 68 29
105 6 38 17 89 25 114 8 25 19 74 25 110 6 36 19 108 30 160 10 52 24 127 30
165 6 39 22 135 35 215 62 383 73 524 81 1040 8 441 -13 971 -46 1185 -11 72
-24 180 -29 240 -5 61 -16 129 -24 152 -9 22 -19 72 -22 110 -4 37 -15 97 -25
133 -11 36 -24 106 -30 155 -6 50 -18 110 -25 135 -8 25 -18 77 -24 116 -5 39
-16 84 -24 100 -8 16 -20 55 -27 86 -6 32 -17 70 -25 85 -7 16 -20 60 -28 99
-8 39 -19 80 -26 91 -6 12 -16 45 -22 75 -6 29 -19 67 -29 83 -10 17 -21 46
-25 65 -4 19 -14 48 -22 64 -8 16 -23 57 -33 90 -32 107 -51 160 -70 201 -11
22 -29 65 -41 95 -34 88 -70 181 -88 230 -9 25 -40 92 -68 150 -28 58 -63 132
-78 165 -34 74 -84 173 -124 245 -16 30 -51 96 -76 145 -26 50 -51 95 -57 102
-14 18 -78 124 -78 131 0 6 -8 19 -110 172 -14 21 -42 63 -62 94 -21 31 -38
59 -38 63 0 4 -8 16 -19 27 -10 12 -49 66 -86 121 -38 55 -89 128 -114 162
-25 35 -59 82 -76 105 -16 23 -62 80 -100 127 -39 47 -78 96 -87 109 -33 48
-234 264 -437 470 -121 123 -222 230 -251 268 -47 60 -109 134 -144 169 -21
22 -59 65 -85 95 -168 203 -261 297 -368 377 -138 104 -272 206 -352 271 -36
29 -83 65 -103 80 -38 27 -49 52 -24 52 23 0 76 -22 76 -31 0 -6 13 -15 29
-20 16 -6 37 -21 46 -35 8 -13 20 -24 26 -24 6 0 27 -13 46 -30 18 -16 39 -30
46 -30 7 0 18 -9 25 -20 7 -11 19 -20 27 -20 8 0 21 -11 30 -23 8 -13 26 -29
40 -35 14 -6 25 -18 25 -25 0 -8 12 -19 27 -26 15 -7 33 -21 40 -31 7 -10 26
-21 42 -25 20 -4 31 -14 35 -31 4 -15 14 -24 25 -24 13 0 21 -8 23 -22 2 -15
11 -24 26 -26 13 -2 25 -9 28 -17 3 -7 24 -21 47 -31 38 -17 55 -30 112 -85
12 -10 25 -19 31 -19 6 0 19 -9 29 -20 10 -11 23 -20 29 -20 28 1 36 22 46
115 10 101 19 121 54 127 14 2 26 -8 41 -35 23 -41 35 -39 35 4 0 18 -7 32
-20 39 -11 6 -20 16 -20 22 0 6 -25 49 -55 94 -57 84 -220 250 -317 322 -55
40 -132 102 -158 126 -8 7 -44 33 -80 57 -36 24 -67 46 -70 49 -14 15 -177
130 -185 130 -2 0 -32 20 -67 44 -35 25 -117 75 -183 112 -66 37 -129 75 -140
84 -11 10 -32 24 -47 31 -14 8 -73 38 -130 67 -56 29 -128 67 -158 83 -59 32
-145 69 -227 99 -28 10 -62 25 -75 33 -12 8 -34 18 -48 22 -14 4 -44 16 -66
26 -23 10 -94 28 -159 39 -93 17 -133 20 -194 13 -110 -11 -202 3 -238 37 -40
37 -241 150 -268 150 -6 0 -31 11 -55 24 -25 13 -72 29 -105 35 -32 6 -66 18
-76 27 -10 9 -53 21 -98 28 -44 6 -82 14 -86 18 -15 15 42 30 143 38 59 5 147
16 195 26 84 17 93 16 200 -1 62 -9 123 -22 137 -27 14 -6 66 -16 115 -23 206
-29 302 -48 341 -65 23 -10 63 -22 90 -25 27 -4 62 -14 77 -22 16 -8 63 -21
105 -29 42 -8 86 -21 98 -29 13 -8 41 -17 63 -21 22 -4 55 -17 73 -30 17 -13
39 -24 47 -24 9 0 34 -12 56 -25 22 -14 46 -25 54 -25 8 0 52 -19 99 -42 124
-63 135 -69 157 -89 12 -10 35 -22 53 -25 17 -4 37 -13 43 -21 7 -8 28 -21 47
-29 20 -8 42 -23 49 -34 8 -11 19 -20 25 -20 6 0 26 -13 45 -30 18 -16 42 -30
53 -30 11 0 27 -8 37 -19 10 -10 33 -23 52 -30 19 -6 40 -20 48 -31 8 -11 19
-20 25 -20 6 0 25 -12 43 -27 17 -16 45 -36 61 -45 56 -34 69 -41 84 -50 58
-34 76 -45 94 -63 21 -21 35 -31 106 -79 24 -15 48 -32 54 -37 25 -19 90 -76
118 -101 16 -16 32 -28 37 -28 17 0 390 -378 447 -453 32 -43 92 -129 131
-190 40 -62 76 -116 81 -122 9 -11 85 -128 127 -195 16 -25 47 -68 69 -97 23
-29 57 -73 76 -99 48 -63 113 -137 187 -212 35 -35 63 -68 63 -73 0 -6 8 -9
18 -7 10 2 17 12 17 28 0 23 21 40 67 54 10 3 23 26 32 55 14 49 78 184 98
209 31 37 17 237 -22 312 -61 115 -65 163 -20 208 16 16 52 38 80 48 27 10 50
23 50 28 -1 32 -59 166 -71 166 -4 0 -10 8 -14 19 -3 10 -18 32 -33 48 -15 16
-43 47 -63 69 -56 62 -98 99 -359 320 -258 219 -519 415 -670 504 -19 11 -55
34 -80 50 -42 28 -504 260 -516 260 -3 0 -56 22 -118 49 -124 55 -271 93 -421
110 -131 15 -154 14 -225 -6 -50 -14 -66 -14 -98 -4 -92 30 -172 50 -231 56
-43 5 -68 13 -79 26 -19 22 -100 27 -119 8 -12 -12 -123 -4 -123 9 0 4 10 16
21 26 17 14 19 20 8 26 -16 10 -29 4 -29 -14 0 -27 -163 -2 -200 30 -8 7 -44
17 -79 23 -70 11 -96 25 -55 29 33 3 44 10 44 28 0 16 -76 20 -82 4 -2 -6 -14
-12 -28 -15 -29 -6 -160 13 -175 26 -6 4 -60 16 -120 25 -73 12 -117 23 -131
36 -13 12 -48 22 -99 28 -79 10 -110 20 -62 20 35 0 57 10 57 26 0 16 -22 22
-116 27 -55 3 -80 10 -105 28 -32 22 -41 24 -229 26 -107 1 -239 5 -292 8 -53
3 -131 0 -172 -6 -57 -9 -83 -8 -108 1 -18 6 -76 14 -128 16 -52 3 -126 12
-165 19 -81 16 -735 25 -1160 16z m955 -484 c74 -9 203 -20 285 -26 84 -5 169
-17 193 -25 24 -9 96 -20 160 -25 64 -5 137 -16 162 -25 25 -8 90 -20 146 -25
106 -11 130 -16 154 -36 8 -7 43 -15 76 -18 69 -6 112 -23 96 -39 -17 -17
-167 -6 -189 14 -14 13 -52 19 -165 27 -80 6 -159 16 -174 21 -15 6 -93 17
-174 25 -81 7 -174 20 -206 29 -33 8 -133 19 -224 26 -161 11 -204 17 -285 40
-49 14 -835 26 -978 15 -58 -4 -103 -12 -111 -20 -14 -14 -132 -30 -305 -40
-57 -4 -122 -13 -145 -21 -23 -8 -114 -19 -205 -25 -104 -7 -171 -15 -185 -24
-12 -7 -70 -18 -130 -24 -68 -7 -115 -16 -125 -25 -18 -17 -90 -35 -136 -36
-17 0 -48 -9 -69 -21 -22 -12 -73 -24 -123 -30 -46 -5 -94 -16 -106 -23 -12
-8 -60 -18 -107 -22 -69 -6 -89 -11 -106 -29 -13 -14 -39 -25 -69 -29 -26 -4
-60 -16 -74 -27 -15 -11 -52 -23 -83 -29 -31 -5 -67 -15 -80 -23 -13 -8 -48
-18 -78 -22 -31 -4 -64 -15 -75 -25 -11 -11 -40 -23 -63 -29 -24 -5 -52 -18
-63 -30 -10 -11 -36 -23 -56 -27 -21 -4 -54 -15 -73 -25 -19 -9 -54 -20 -78
-24 -24 -4 -46 -13 -49 -21 -3 -8 -25 -19 -49 -25 -25 -7 -49 -20 -54 -29 -5
-10 -32 -26 -59 -35 -27 -9 -51 -21 -53 -26 -2 -5 -28 -16 -58 -24 -30 -8 -56
-19 -58 -25 -2 -5 -22 -15 -45 -21 -23 -6 -54 -22 -70 -35 -16 -13 -34 -24
-41 -24 -7 0 -27 -11 -46 -25 -18 -14 -48 -28 -66 -31 -18 -3 -38 -12 -44 -20
-7 -7 -28 -18 -48 -25 -20 -6 -46 -19 -57 -29 -11 -9 -34 -22 -52 -29 -17 -7
-39 -21 -49 -32 -9 -10 -23 -19 -30 -19 -22 0 -178 -91 -224 -130 -34 -28
-113 -80 -124 -80 -13 0 -110 -66 -126 -85 -7 -9 -27 -23 -44 -31 -66 -31
-186 -111 -186 -124 0 -5 -11 -15 -24 -22 -39 -22 -108 -69 -130 -89 -11 -11
-25 -19 -32 -19 -7 0 -15 -8 -19 -18 -3 -11 -17 -24 -30 -30 -14 -6 -25 -16
-25 -22 0 -5 -18 -21 -40 -35 -22 -14 -73 -56 -113 -93 -40 -37 -88 -80 -107
-96 -38 -30 -296 -275 -449 -426 -87 -86 -207 -214 -262 -280 -11 -14 -36 -42
-55 -64 -55 -62 -274 -335 -274 -342 0 -3 -24 -34 -52 -69 -54 -64 -70 -87
-134 -185 -20 -30 -47 -65 -60 -78 -13 -13 -24 -29 -24 -36 0 -8 -7 -19 -16
-27 -9 -7 -23 -27 -32 -44 -34 -62 -65 -106 -83 -116 -11 -5 -19 -16 -19 -23
0 -7 -8 -21 -19 -30 -10 -9 -26 -37 -36 -61 -9 -25 -20 -45 -25 -45 -4 0 -15
-18 -24 -40 -9 -22 -20 -40 -26 -40 -6 0 -16 -12 -22 -27 -7 -16 -23 -41 -35
-56 -13 -16 -23 -36 -23 -46 0 -9 -11 -32 -25 -51 -14 -19 -25 -42 -25 -52 0
-11 -11 -29 -25 -42 -14 -13 -25 -30 -25 -38 0 -8 -13 -30 -30 -48 -17 -18
-30 -43 -30 -55 0 -12 -11 -36 -25 -55 -14 -19 -25 -43 -25 -55 0 -12 -11 -36
-25 -55 -14 -19 -25 -41 -25 -50 0 -9 -11 -27 -24 -39 -15 -14 -26 -39 -31
-69 -4 -26 -15 -60 -25 -77 -10 -16 -20 -46 -24 -66 -4 -20 -15 -44 -26 -54
-11 -10 -20 -27 -20 -37 0 -10 -11 -29 -25 -42 -20 -19 -27 -38 -33 -90 -6
-45 -14 -70 -26 -79 -12 -9 -19 -32 -23 -74 -5 -52 -9 -63 -29 -72 -21 -9 -24
-17 -24 -66 l0 -56 30 16 c35 18 48 19 32 3 -9 -9 -7 -14 6 -24 13 -10 14 -15
5 -25 -8 -8 -9 -18 -1 -35 9 -18 6 -36 -11 -82 -11 -33 -21 -72 -21 -88 0 -16
-6 -38 -14 -49 -7 -12 -15 -59 -18 -112 -5 -86 -4 -93 13 -93 11 0 19 -7 19
-17 0 -15 2 -16 10 -3 7 11 10 4 10 -27 0 -24 -4 -43 -10 -43 -5 0 -10 -6 -10
-14 0 -7 -7 -19 -15 -26 -11 -9 -15 -33 -15 -88 0 -56 -4 -78 -16 -86 -22 -17
-33 -78 -34 -187 0 -76 -4 -107 -21 -144 -15 -33 -23 -80 -28 -154 -5 -72 -12
-114 -24 -131 -11 -17 -19 -66 -27 -150 -5 -69 -17 -144 -25 -167 -10 -28 -18
-122 -25 -290 -6 -136 -16 -300 -23 -363 -15 -147 -15 -712 1 -845 6 -55 16
-193 22 -307 6 -126 17 -246 29 -305 11 -54 23 -134 26 -178 4 -44 15 -98 25
-121 9 -22 21 -81 25 -130 4 -49 15 -114 25 -144 10 -30 23 -106 29 -167 6
-62 17 -126 25 -141 8 -15 20 -57 26 -92 6 -36 18 -76 27 -89 8 -13 21 -53 29
-89 7 -36 20 -72 28 -81 7 -9 17 -41 21 -71 4 -30 15 -73 26 -95 10 -23 23
-65 29 -95 6 -29 17 -61 25 -69 7 -9 19 -38 25 -65 6 -27 19 -59 30 -73 10
-13 22 -43 25 -66 4 -23 15 -58 25 -77 10 -20 21 -53 25 -73 4 -20 15 -47 25
-60 10 -13 21 -40 25 -60 4 -20 17 -49 28 -64 12 -15 29 -47 38 -72 39 -107
59 -155 72 -170 8 -9 18 -31 22 -48 3 -18 16 -39 27 -47 11 -8 24 -34 29 -57
6 -24 16 -51 23 -59 8 -8 21 -38 30 -67 10 -28 24 -57 32 -63 7 -7 14 -18 14
-25 0 -7 10 -25 22 -40 21 -27 45 -69 92 -160 14 -27 30 -57 35 -65 5 -8 27
-44 48 -80 21 -36 43 -68 50 -73 6 -4 17 -24 24 -45 6 -20 18 -44 25 -52 7 -9
20 -31 29 -50 17 -37 54 -94 78 -120 8 -8 24 -33 36 -55 12 -22 33 -58 46 -80
13 -22 32 -56 43 -75 11 -19 29 -44 41 -54 12 -11 21 -24 21 -30 0 -5 11 -26
23 -45 13 -20 41 -63 62 -96 21 -33 41 -62 44 -65 9 -8 67 -89 108 -150 20
-30 45 -64 55 -75 18 -19 77 -94 151 -193 17 -24 40 -52 50 -63 10 -11 40 -52
66 -92 27 -40 65 -89 85 -109 20 -20 36 -41 36 -46 0 -4 10 -18 23 -29 12 -12
37 -42 56 -67 18 -25 37 -46 41 -46 4 0 27 -26 51 -57 24 -32 65 -83 91 -114
27 -30 48 -63 48 -71 0 -9 7 -21 15 -28 9 -7 13 -15 11 -17 -2 -3 2 -22 9 -44
12 -34 12 -43 -2 -71 -29 -59 -33 -68 -54 -123 -11 -30 -29 -60 -39 -65 -28
-15 -101 -1 -127 24 -11 12 -27 26 -35 33 -7 7 -18 18 -25 25 -6 7 -25 24 -42
38 -17 14 -48 43 -68 65 -21 22 -73 75 -115 117 -43 43 -78 81 -78 85 0 5 -38
50 -85 102 -47 51 -85 96 -85 100 0 4 -22 30 -50 59 -28 29 -50 57 -50 62 0 5
-9 12 -20 15 -11 3 -20 13 -20 20 0 8 -27 46 -60 84 -33 39 -60 73 -60 76 0 3
-16 21 -35 41 -19 19 -43 47 -52 62 -22 34 -73 102 -120 159 -20 24 -43 56
-52 72 -31 55 -71 111 -80 111 -5 0 -15 15 -21 34 -6 19 -18 40 -27 48 -9 7
-24 31 -35 53 -30 63 -55 105 -74 126 -20 23 -33 44 -74 124 -52 101 -62 119
-87 148 -12 16 -23 33 -23 39 0 5 -11 23 -25 40 -14 16 -25 36 -25 43 0 8 -10
25 -22 39 -13 14 -41 48 -62 76 -22 27 -46 50 -53 50 -8 0 -20 15 -28 33 -8
19 -21 39 -29 46 -8 7 -18 26 -21 42 -4 16 -11 32 -17 35 -6 4 -21 31 -34 60
-13 30 -28 54 -32 54 -5 0 -17 19 -27 43 -10 23 -24 49 -31 57 -6 8 -17 33
-24 55 -7 22 -21 53 -31 70 -11 16 -19 38 -19 47 0 9 -11 29 -24 45 -13 15
-27 39 -31 53 -4 14 -14 36 -23 50 -9 14 -24 46 -34 73 -10 26 -26 68 -36 95
-16 43 -42 100 -93 207 -10 22 -24 60 -30 85 -6 25 -15 50 -20 56 -5 6 -16 42
-24 80 -9 38 -23 76 -31 85 -7 8 -17 31 -20 50 -4 19 -16 52 -29 74 -12 22
-28 62 -34 90 -7 27 -17 55 -22 61 -4 6 -15 42 -23 80 -8 38 -21 85 -29 104
-8 19 -20 62 -27 95 -7 32 -18 69 -26 80 -17 25 -48 167 -74 330 -11 66 -26
149 -34 185 -8 36 -18 94 -21 130 -4 36 -15 90 -26 120 -11 30 -24 99 -30 153
-5 54 -14 109 -19 122 -11 28 -16 86 -30 305 -5 91 -17 280 -26 420 -12 178
-15 314 -10 450 8 262 42 710 60 812 8 46 20 134 26 196 6 62 19 134 29 160
11 26 24 89 30 139 6 50 17 108 25 129 7 22 19 86 25 144 7 58 18 123 26 145
8 22 19 76 25 119 6 44 17 87 25 96 8 9 21 48 30 88 8 40 21 82 29 95 8 12 17
47 21 77 4 30 15 79 26 108 10 29 21 73 25 98 3 24 15 55 25 68 10 13 23 45
29 72 6 27 19 60 28 74 9 14 22 48 29 75 17 72 55 177 76 208 9 14 17 30 17
34 0 4 13 35 29 68 35 72 81 191 81 207 0 10 33 80 94 198 31 60 66 137 72
160 3 14 12 32 19 40 7 8 21 34 30 57 9 23 23 44 30 47 8 3 19 24 25 48 7 24
18 50 26 59 7 8 17 31 21 49 3 19 16 48 27 66 26 39 56 88 78 126 9 16 23 37
31 46 9 9 19 29 22 45 4 15 11 30 17 33 5 3 20 30 33 60 13 30 29 54 34 54 6
0 18 15 26 33 31 63 104 182 128 207 8 8 20 26 27 40 7 14 21 31 32 38 10 7
18 18 18 24 0 15 48 90 105 163 28 35 63 86 79 112 28 47 45 68 95 118 13 13
31 37 40 53 34 61 63 102 72 102 5 0 14 11 19 25 5 14 16 28 23 31 8 3 45 43
83 90 38 47 102 120 141 162 40 42 73 80 73 84 0 4 19 24 42 45 23 21 58 55
77 76 188 202 568 545 846 761 17 13 41 29 55 36 14 7 31 21 38 32 7 10 18 18
23 18 6 0 25 15 43 33 43 42 56 51 97 72 19 10 55 35 80 56 54 45 148 109 159
109 5 0 15 6 22 14 8 7 33 23 56 35 23 12 42 26 42 31 0 5 9 12 20 15 11 4 33
17 48 30 16 13 58 39 93 57 36 18 71 39 79 46 32 29 226 131 278 147 12 3 22
10 22 15 0 5 18 15 40 21 22 7 47 20 56 31 10 10 21 18 26 18 5 0 41 16 81 35
39 19 79 35 88 35 9 0 22 6 28 14 7 8 25 17 40 21 16 3 43 17 61 30 18 14 49
30 69 36 19 7 49 20 66 30 16 11 42 19 56 19 14 0 36 9 49 20 12 11 39 22 59
26 20 4 47 17 61 29 14 12 43 28 65 35 22 7 49 19 61 26 11 8 44 18 74 24 30
6 56 14 59 19 8 11 78 31 113 31 15 0 38 11 51 24 14 14 42 27 68 31 24 4 59
16 77 27 19 12 59 22 95 25 34 3 70 12 79 20 9 8 54 20 99 25 53 7 88 17 99
28 10 10 48 23 86 30 38 7 87 21 109 31 22 9 72 22 111 28 39 6 87 18 108 26
21 9 84 18 149 22 66 3 118 11 127 18 18 15 51 21 192 35 59 6 122 17 141 25
40 16 206 35 316 35 42 0 94 5 116 11 110 31 1064 35 1315 6z m2690 4 c0 -13
-20 -18 -47 -13 -35 7 -28 19 12 20 19 1 35 -3 35 -7z m128 -40 c17 -1 22 -7
22 -26 0 -23 -3 -25 -27 -19 -48 12 -73 23 -73 33 0 11 20 19 40 15 8 -1 25
-3 38 -3z m113 -61 c10 0 20 -9 24 -19 4 -13 19 -21 51 -26 24 -3 53 -15 62
-26 10 -10 39 -23 64 -28 25 -4 58 -18 73 -30 15 -11 34 -21 41 -21 7 0 25
-12 41 -26 15 -14 40 -28 56 -31 15 -3 32 -14 38 -24 6 -11 26 -21 50 -25 22
-4 44 -14 49 -24 5 -9 27 -22 48 -28 22 -7 42 -19 46 -27 3 -8 22 -21 42 -30
24 -10 34 -20 31 -29 -4 -11 7 -16 44 -21 38 -5 49 -11 49 -25 0 -13 11 -19
46 -25 34 -5 47 -12 54 -29 5 -13 20 -26 34 -30 28 -7 36 -36 11 -36 -24 0
-137 63 -143 80 -8 20 -23 30 -49 30 -12 0 -30 9 -40 19 -10 10 -37 24 -59 30
-23 6 -47 18 -54 26 -7 8 -18 15 -25 15 -7 0 -29 14 -50 30 -21 17 -42 30 -48
30 -6 0 -25 11 -43 25 -18 14 -41 25 -52 25 -11 0 -35 11 -55 24 -19 13 -46
27 -58 31 -13 4 -37 18 -52 31 -16 13 -37 24 -48 24 -11 0 -30 11 -43 25 -12
13 -42 28 -66 34 -23 5 -46 14 -49 20 -4 5 -28 19 -54 30 -54 23 -64 47 -16
37 17 -3 40 -6 50 -6z m-1548 -167 c-7 -2 -21 -2 -30 0 -10 3 -4 5 12 5 17 0
24 -2 18 -5z m335 -261 c15 -16 37 -34 50 -41 12 -6 22 -15 22 -19 0 -10 -115
-44 -136 -40 -11 2 -21 16 -25 36 -4 19 -12 39 -18 45 -17 17 -13 27 12 37 40
16 68 11 95 -18z m2272 -169 c0 -11 -7 -13 -32 -8 -43 9 -53 16 -39 24 19 12
71 0 71 -16z m54 -29 c22 -9 21 -44 -2 -44 -21 0 -42 18 -42 37 0 14 18 17 44
7z m71 -75 c-8 -12 -32 -12 -40 1 -11 18 5 31 26 20 11 -6 17 -15 14 -21z
m-1268 -264 c0 -23 -24 -25 -43 -4 -17 18 -16 19 13 19 19 0 30 -5 30 -15z
m62 -31 c24 -5 31 -12 31 -29 0 -21 -3 -22 -36 -15 -42 10 -59 23 -50 39 8 13
13 13 55 5z m96 -63 c3 -5 1 -12 -5 -16 -13 -8 -50 3 -50 16 0 12 47 12 55 0z
m203 -128 c2 -17 10 -23 27 -23 28 0 37 -11 25 -30 -7 -11 -17 -7 -52 19 -24
17 -52 39 -63 47 -19 13 -17 14 20 12 33 -3 41 -7 43 -25z m-1835 -1290 c-7
-2 -19 -2 -25 0 -7 3 -2 5 12 5 14 0 19 -2 13 -5z m104 -49 c-3 -3 -12 -4 -19
-1 -8 3 -5 6 6 6 11 1 17 -2 13 -5z m142 -60 c2 -2 -10 -4 -27 -4 -18 0 -32 5
-32 10 0 9 47 4 59 -6z m71 -44 c11 -7 7 -10 -18 -10 -20 0 -31 4 -27 10 8 13
26 13 45 0z m119 -56 c12 -11 -13 -16 -46 -9 -32 6 -35 9 -18 15 18 8 53 4 64
-6z m81 -54 c0 -12 -8 -12 -35 0 -18 8 -17 9 8 9 15 1 27 -3 27 -9z m65 -50
c3 -5 -1 -10 -9 -10 -9 0 -16 5 -16 10 0 6 4 10 9 10 6 0 13 -4 16 -10z m94
-56 c2 -2 -10 -4 -27 -4 -18 0 -32 5 -32 10 0 9 47 4 59 -6z m-1554 -1404 c28
-5 96 -14 152 -19 67 -7 116 -17 142 -31 22 -11 60 -20 84 -20 42 0 142 -24
162 -40 6 -4 30 -10 55 -12 25 -3 65 -14 90 -26 25 -11 59 -22 75 -25 29 -5
126 -34 215 -64 87 -30 226 -104 302 -161 43 -31 101 -73 129 -92 56 -39 362
-339 406 -398 15 -20 48 -62 74 -92 25 -30 58 -74 73 -98 15 -24 43 -64 63
-90 75 -97 210 -414 228 -535 4 -26 11 -50 16 -52 4 -3 11 -27 14 -53 4 -26
18 -70 31 -98 21 -44 24 -65 24 -162 0 -62 4 -112 9 -112 18 0 34 -65 42 -173
4 -62 15 -143 24 -182 14 -56 16 -99 11 -215 -3 -80 -10 -161 -16 -180 -6 -19
-18 -86 -26 -148 -8 -63 -23 -130 -33 -150 -10 -20 -22 -64 -26 -97 -4 -33
-14 -76 -22 -95 -8 -19 -22 -62 -29 -95 -8 -33 -21 -69 -28 -80 -7 -11 -19
-38 -26 -60 -7 -22 -20 -49 -29 -60 -10 -11 -24 -39 -31 -63 -7 -24 -17 -45
-20 -47 -4 -2 -28 -47 -53 -98 -26 -52 -54 -100 -62 -107 -8 -7 -15 -18 -15
-25 0 -7 -12 -28 -27 -48 -16 -20 -41 -59 -58 -87 -42 -73 -218 -282 -309
-367 -152 -143 -429 -353 -465 -353 -5 0 -22 -10 -38 -23 -52 -43 -217 -121
-291 -138 -26 -5 -54 -17 -63 -25 -9 -8 -52 -19 -98 -24 -45 -5 -91 -16 -103
-25 -15 -10 -45 -15 -88 -15 -84 0 -110 7 -103 27 5 14 -1 15 -43 10 -36 -4
-58 0 -86 14 -20 10 -44 19 -51 19 -8 0 -20 6 -26 14 -6 7 -24 16 -39 19 -28
6 -58 49 -47 67 3 5 -11 27 -32 48 -21 22 -51 63 -68 92 -16 29 -42 67 -57 84
-14 17 -28 45 -30 61 -5 44 -26 43 -30 -2 -2 -30 -7 -39 -25 -41 -33 -5 -36
55 -5 85 28 28 29 63 2 70 -23 6 -27 23 -5 23 38 0 38 95 -1 112 -12 6 -25 17
-28 25 -7 17 10 92 32 147 18 42 82 96 115 96 25 0 57 27 57 48 0 22 31 41 66
42 17 0 47 11 66 24 19 13 55 26 81 30 25 4 56 15 69 26 13 10 42 23 65 29 22
6 46 18 53 26 6 7 28 19 48 26 20 6 53 21 72 33 19 12 42 26 51 31 68 41 112
78 192 158 83 83 187 212 187 232 0 5 6 16 14 24 40 45 146 295 146 344 0 8 9
34 19 58 26 61 45 242 37 363 -8 121 -25 234 -39 261 -5 11 -18 49 -28 85 -78
285 -230 507 -475 698 -16 12 -42 33 -59 45 -55 43 -255 139 -315 152 -19 4
-51 16 -71 26 -23 11 -97 25 -215 38 -150 17 -284 23 -795 31 -655 10 -1287
27 -1331 36 -17 3 -25 10 -22 18 6 15 -44 78 -56 71 -4 -2 -23 12 -42 33 -29
31 -33 42 -26 61 6 19 2 30 -22 57 -30 35 -39 64 -19 64 5 0 7 5 3 11 -5 8 -9
8 -14 -1 -14 -23 -40 38 -40 97 0 45 -7 70 -30 112 -17 30 -33 73 -37 95 -6
41 -42 139 -68 187 -8 14 -14 46 -14 70 0 24 -2 60 -6 79 -5 25 0 51 14 88 12
29 21 66 21 82 0 39 9 60 27 60 8 0 12 4 8 9 -3 6 9 12 27 15 18 2 105 16 193
30 167 26 322 35 970 56 482 15 899 32 904 36 9 8 348 2 396 -6z m-6015 -2372
c-1 -41 -3 -49 -11 -36 -9 16 -3 88 7 88 2 0 4 -24 4 -52z m-75 -233 c-19 -18
-25 -34 -25 -65 0 -23 -9 -60 -19 -84 -11 -23 -25 -82 -32 -131 -6 -49 -19
-105 -29 -125 -11 -21 -21 -71 -25 -127 -6 -75 -10 -92 -24 -96 -23 -6 -31
-47 -31 -152 0 -47 -6 -100 -15 -124 -29 -84 -34 -191 -25 -616 6 -315 12
-439 24 -495 9 -41 20 -124 25 -183 7 -76 14 -114 26 -127 10 -11 19 -50 26
-111 5 -51 16 -103 25 -117 9 -14 18 -62 23 -125 6 -73 15 -114 30 -142 11
-22 21 -56 21 -77 0 -34 20 -68 40 -68 5 0 10 -33 12 -72 3 -67 5 -73 26 -76
27 -4 29 -30 5 -84 -28 -63 -43 -49 -43 38 0 62 -4 83 -24 117 -14 23 -28 59
-32 80 -3 21 -17 50 -29 65 -15 19 -24 45 -27 85 -3 36 -12 68 -25 85 -14 19
-22 50 -26 107 -4 44 -16 113 -27 153 -11 40 -25 108 -30 150 -6 42 -19 118
-30 167 -38 174 -61 683 -39 860 5 44 13 159 18 255 6 135 12 183 25 209 10
18 24 83 31 145 7 61 20 149 28 196 9 47 20 119 25 160 6 41 19 102 31 134 12
33 21 70 21 84 0 13 11 37 24 52 13 16 27 45 31 66 3 20 17 53 31 73 13 20 25
45 26 56 1 11 4 -11 5 -48 4 -63 2 -71 -22 -92z m114 -3328 c7 -21 24 -48 38
-61 15 -14 27 -38 30 -64 4 -32 10 -42 24 -42 22 0 34 -37 26 -79 -5 -22 0
-34 24 -57 16 -15 29 -36 29 -46 0 -10 14 -32 30 -50 17 -17 30 -39 30 -49 0
-10 8 -23 19 -28 10 -6 23 -30 29 -54 6 -24 21 -55 32 -69 11 -15 20 -31 20
-38 0 -6 11 -22 24 -35 13 -13 26 -35 30 -49 3 -14 17 -37 31 -52 14 -15 25
-32 25 -39 0 -7 14 -29 30 -50 17 -21 30 -44 30 -52 0 -7 7 -16 15 -20 9 -3
22 -18 31 -34 8 -16 20 -29 28 -29 7 0 18 -12 25 -26 14 -32 23 -43 163 -217
135 -166 172 -208 334 -372 111 -113 131 -137 127 -158 -5 -24 -6 -24 -24 -9
-10 10 -33 28 -51 42 -42 33 -260 250 -323 322 -66 74 -89 103 -133 163 -20
28 -42 55 -48 60 -6 6 -18 21 -27 35 -9 14 -30 43 -46 65 -17 22 -38 57 -47
78 -9 21 -25 42 -35 48 -11 5 -19 15 -19 23 0 7 -11 22 -24 33 -13 12 -27 35
-31 53 -4 17 -13 34 -21 37 -8 3 -21 21 -29 39 -8 19 -19 34 -24 34 -6 0 -18
17 -26 37 -8 20 -24 43 -35 50 -11 8 -20 21 -20 30 0 9 -11 30 -23 47 -13 17
-27 44 -31 61 -4 16 -16 35 -26 42 -10 7 -21 26 -25 42 -3 16 -16 33 -29 39
-19 8 -25 22 -31 61 -4 32 -12 51 -20 51 -18 0 -25 23 -25 81 0 38 -4 51 -17
56 -24 9 -33 23 -33 55 0 40 -10 58 -31 58 -17 0 -19 8 -19 61 l0 62 19 -24
c10 -13 24 -41 30 -62z m-2873 -1082 c8 -31 -3 -78 -16 -70 -13 8 -13 95 0 95
5 0 12 -11 16 -25z m5391 -371 c-3 -3 -12 -4 -19 -1 -8 3 -5 6 6 6 11 1 17 -2
13 -5z m46 -11 c-7 -2 -19 -2 -25 0 -7 3 -2 5 12 5 14 0 19 -2 13 -5z m3390
-1590 c-7 -2 -21 -2 -30 0 -10 3 -4 5 12 5 17 0 24 -2 18 -5z m4939 -115 c-13
-13 -24 5 -16 27 7 16 8 16 17 0 6 -11 6 -20 -1 -27z m-37 -28 c7 -12 -12 -50
-26 -50 -13 0 -22 27 -15 45 6 17 32 20 41 5z m-61 -75 c-4 -8 -10 -15 -15
-15 -5 0 -9 7 -9 15 0 8 7 15 15 15 9 0 12 -6 9 -15z m-1254 -1630 c-7 -8 -19
-15 -26 -15 -8 0 -14 7 -14 15 0 10 10 15 26 15 22 0 25 -2 14 -15z m-52 -34
c17 -10 -4 -29 -38 -34 -13 -2 -27 -12 -31 -23 -6 -15 -8 -15 -8 -3 -1 17 42
69 56 69 4 0 14 -4 21 -9z m-1988 -436 c0 -2 -9 -9 -20 -15 -16 -9 -18 -8 -14
5 5 13 34 22 34 10z m1282 -467 c-7 -7 -12 -8 -12 -2 0 14 12 26 19 19 2 -3
-1 -11 -7 -17z m-108 -59 c-37 -7 -42 -2 -18 15 15 11 22 12 33 3 12 -10 9
-13 -15 -18z m-1557 -385 c-3 -3 -12 -4 -19 -1 -8 3 -5 6 6 6 11 1 17 -2 13
-5z m468 -124 c3 -5 -3 -10 -15 -10 -12 0 -18 5 -15 10 3 6 10 10 15 10 5 0
12 -4 15 -10z m-305 -90 c0 -5 5 -9 11 -7 6 1 13 -3 16 -9 2 -7 -20 -12 -64
-13 -68 -2 -68 -2 -48 18 21 21 85 29 85 11z m-110 -54 c0 -23 -4 -24 -61 -28
-63 -3 -91 4 -69 17 6 4 14 5 16 2 3 -3 22 4 42 14 52 26 72 24 72 -5z m-380
-113 c0 -15 -10 -18 -66 -18 -65 -1 -65 0 -44 17 31 25 110 25 110 1z m-149
-30 c-5 -10 -8 -22 -8 -28 3 -14 -186 -24 -195 -11 -8 12 48 28 70 21 7 -3 22
-1 31 5 10 5 35 11 55 13 20 2 40 7 43 11 12 11 14 6 4 -11z m-332 -64 c13 7
17 5 18 -9 2 -22 -24 -27 -87 -19 -25 3 -43 7 -40 8 3 1 23 8 45 15 22 8 41
10 43 5 2 -5 11 -5 21 0z m-222 -54 c8 -9 13 -18 10 -21 -7 -7 -117 -7 -125 0
-3 3 6 6 19 6 13 1 35 7 49 15 31 18 29 18 47 0z m-157 -9 l33 -13 -35 -5
c-45 -5 -58 0 -51 18 6 17 12 17 53 0z"/>
<path d="M6340 16675 c0 -59 7 -66 35 -35 10 11 15 20 11 20 -4 0 -2 8 3 18
12 23 -4 52 -29 52 -17 0 -20 -7 -20 -55z"/>
<path d="M16454 22336 c-9 -24 -2 -27 60 -29 91 -2 89 32 -3 41 -41 4 -52 1
-57 -12z"/>
<path d="M8942 20914 c-2 -30 0 -34 22 -34 30 0 63 40 43 52 -7 4 -25 9 -38
11 -22 4 -25 1 -27 -29z"/>
<path d="M8803 20828 c-24 -32 -24 -38 1 -38 21 0 26 5 26 25 0 27 -12 32 -27
13z"/>
<path d="M8841 20824 c0 -11 3 -14 6 -6 3 7 2 16 -1 19 -3 4 -6 -2 -5 -13z"/>
<path d="M18952 20180 c0 -14 2 -19 5 -12 2 6 2 18 0 25 -3 6 -5 1 -5 -13z"/>
<path d="M7918 20144 c-26 -13 -49 -32 -53 -41 -3 -10 -24 -31 -45 -48 -22
-16 -51 -40 -65 -52 -15 -13 -30 -23 -34 -23 -4 0 -13 -11 -19 -25 -6 -14 -18
-25 -26 -25 -8 0 -18 -10 -22 -22 -4 -13 -42 -60 -85 -106 -44 -46 -79 -90
-79 -98 0 -18 -25 -46 -34 -37 -3 4 -6 -2 -6 -11 0 -13 5 -16 18 -11 9 4 25
10 35 12 9 3 17 10 17 16 0 6 3 7 7 4 3 -4 27 12 53 36 67 60 134 115 220 179
41 31 90 70 108 87 18 17 37 31 42 31 13 0 96 82 109 107 6 12 8 29 5 37 -7
19 -9 19 -35 6 -13 -7 -19 -7 -19 0 0 16 -41 9 -92 -16z"/>
<path d="M18996 20094 c-10 -27 -7 -58 14 -117 11 -31 20 -78 20 -104 0 -57
10 -72 110 -173 90 -91 136 -126 143 -108 5 14 1 18 -86 110 -30 32 -60 72
-67 90 -7 18 -20 40 -27 49 -8 10 -18 47 -24 83 -6 42 -16 73 -28 85 -11 11
-23 36 -27 56 -7 40 -19 52 -28 29z"/>
<path d="M7394 19609 c-9 -16 2 -22 21 -11 15 8 16 10 1 15 -8 3 -18 2 -22 -4z"/>
<path d="M19306 19561 c-3 -5 1 -14 8 -20 16 -13 32 2 21 19 -8 12 -22 13 -29
1z"/>
<path d="M19345 19511 c-8 -14 37 -43 48 -32 15 15 0 41 -22 41 -11 0 -22 -4
-26 -9z"/>
<path d="M19412 19448 c6 -18 28 -21 28 -4 0 9 -7 16 -16 16 -9 0 -14 -5 -12
-12z"/>
<path d="M19510 19351 c0 -12 29 -35 36 -28 11 10 -5 37 -21 37 -8 0 -15 -4
-15 -9z"/>
<path d="M19566 19301 c-7 -10 22 -37 30 -28 9 8 -3 37 -15 37 -5 0 -12 -4
-15 -9z"/>
<path d="M19630 19241 c0 -5 5 -13 10 -16 6 -3 10 -2 10 4 0 5 -4 13 -10 16
-5 3 -10 2 -10 -4z"/>
<path d="M19660 19195 c0 -11 35 -60 52 -73 10 -7 18 -20 18 -28 0 -17 24 -29
39 -20 14 9 -18 68 -40 73 -9 3 -20 16 -23 29 -4 15 -14 24 -26 24 -11 0 -20
-2 -20 -5z"/>
<path d="M19787 19063 c-14 -13 -6 -43 13 -55 11 -7 20 -18 20 -24 0 -12 50
-79 88 -119 10 -11 25 -30 31 -43 7 -13 19 -31 27 -40 23 -26 62 -84 73 -109
6 -12 19 -26 29 -32 11 -6 25 -24 32 -41 7 -16 16 -30 20 -30 4 0 18 -19 29
-42 33 -64 63 -111 89 -136 12 -12 22 -29 22 -37 0 -8 9 -19 20 -25 11 -6 20
-18 20 -26 0 -9 13 -34 28 -57 31 -47 45 -69 70 -111 9 -16 27 -39 40 -51 12
-12 22 -29 22 -37 0 -8 11 -32 25 -52 14 -20 28 -48 31 -62 4 -14 13 -28 20
-31 8 -3 23 -26 34 -51 15 -34 23 -43 32 -34 13 13 -6 92 -22 92 -4 0 -16 20
-25 44 -9 24 -25 46 -34 49 -9 2 -22 22 -29 45 -7 22 -19 43 -27 46 -8 3 -15
16 -15 29 0 13 -13 41 -30 62 -16 21 -30 43 -30 50 0 7 -11 20 -24 28 -13 9
-27 28 -30 43 -4 16 -16 34 -27 42 -10 7 -19 22 -19 33 0 10 -8 27 -18 37 -10
10 -24 32 -31 50 -8 18 -22 37 -33 43 -10 6 -23 21 -28 35 -6 14 -18 24 -28
24 -15 0 -21 10 -26 38 -3 21 -14 46 -25 56 -11 10 -22 28 -25 42 -4 13 -13
24 -22 24 -8 0 -20 13 -25 29 -6 16 -17 32 -24 35 -8 3 -23 23 -35 46 -11 22
-25 40 -30 40 -5 0 -12 11 -16 25 -3 14 -15 30 -26 36 -10 6 -23 22 -29 36 -5
14 -18 27 -29 30 -11 3 -20 10 -20 17 -1 17 -26 47 -33 39z"/>
<path d="M6864 18975 c-3 -8 -3 -19 1 -25 9 -14 35 6 35 26 0 19 -29 18 -36
-1z"/>
<path d="M6833 18923 c-7 -3 -17 -22 -23 -43 -6 -24 -18 -41 -30 -45 -11 -4
-20 -15 -20 -25 0 -11 -11 -27 -24 -36 -14 -8 -27 -28 -31 -43 -3 -16 -17 -38
-31 -50 -19 -16 -24 -30 -22 -58 l2 -36 53 59 c29 33 53 64 53 70 0 6 11 21
25 34 14 13 25 32 25 43 0 10 8 31 18 45 10 15 21 34 24 42 7 21 -5 48 -19 43z"/>
<path d="M6610 18560 c0 -5 4 -10 9 -10 6 0 13 5 16 10 3 6 -1 10 -9 10 -9 0
-16 -4 -16 -10z"/>
<path d="M6500 18395 c0 -8 4 -15 9 -15 5 0 11 7 15 15 3 9 0 15 -9 15 -8 0
-15 -7 -15 -15z"/>
<path d="M20626 17801 c-9 -14 2 -69 15 -76 11 -8 12 55 0 74 -6 9 -10 10 -15
2z"/>
<path d="M20674 17695 c-9 -21 4 -67 26 -90 9 -11 23 -36 29 -56 7 -22 20 -39
31 -42 13 -3 20 -14 20 -29 0 -55 21 -87 34 -52 8 22 -14 94 -29 94 -7 0 -15
18 -19 40 -3 21 -17 51 -30 65 -14 15 -28 40 -31 56 -7 31 -22 38 -31 14z"/>
<path d="M20832 17352 c3 -28 11 -59 19 -68 8 -9 21 -35 30 -58 17 -43 49 -62
49 -29 0 32 -19 85 -37 105 -10 11 -23 36 -28 56 -6 19 -16 37 -24 40 -11 4
-13 -6 -9 -46z"/>
<path d="M20947 17174 c-16 -16 -2 -109 14 -98 11 6 11 61 0 87 -3 10 -10 15
-14 11z"/>
<path d="M20995 17037 c-11 -26 0 -105 18 -125 8 -9 18 -37 22 -61 4 -25 17
-53 30 -65 12 -12 25 -39 29 -61 11 -61 17 -76 27 -70 14 10 10 97 -6 129 -8
16 -22 53 -31 82 -9 31 -24 58 -35 64 -10 6 -19 21 -20 33 0 12 -6 38 -14 57
-10 29 -14 32 -20 17z"/>
<path d="M21147 16628 c-7 -20 10 -127 23 -142 6 -8 16 -42 22 -76 6 -36 18
-69 29 -79 10 -9 23 -42 29 -72 15 -81 20 -93 33 -80 16 16 8 121 -13 166 -10
22 -23 64 -30 93 -7 32 -19 56 -31 62 -10 6 -21 26 -24 48 -13 77 -17 92 -25
92 -4 0 -10 -6 -13 -12z"/>
<path d="M22054 13810 c0 -58 1 -81 3 -52 2 28 2 76 0 105 -2 28 -3 5 -3 -53z"/>
<path d="M22047 13290 c-9 -156 -9 -288 2 -294 21 -13 27 142 12 324 l-6 85
-8 -115z"/>
<path d="M5188 13274 c-11 -11 -9 -136 2 -154 8 -13 10 -12 11 5 1 11 2 29 4
40 3 35 -10 117 -17 109z"/>
<path d="M5656 12389 c-3 -17 -2 -38 4 -47 7 -13 9 -5 10 31 0 54 -5 60 -14
16z"/>
<path d="M5291 12128 c-1 -39 3 -68 9 -68 18 0 21 44 6 90 l-14 45 -1 -67z"/>
<path d="M5340 11888 c0 -26 5 -50 10 -53 6 -3 10 0 10 7 0 7 3 22 6 33 3 11
-2 29 -10 40 -14 19 -15 17 -16 -27z"/>
<path d="M21891 11734 c0 -11 3 -14 6 -6 3 7 2 16 -1 19 -3 4 -6 -2 -5 -13z"/>
<path d="M5803 11705 c-6 -16 2 -83 11 -92 14 -14 26 14 26 58 0 37 -4 49 -15
49 -9 0 -18 -7 -22 -15z"/>
<path d="M5452 11400 c0 -19 2 -27 5 -17 2 9 2 25 0 35 -3 9 -5 1 -5 -18z"/>
<path d="M5500 11247 c0 -27 4 -46 9 -43 15 10 19 55 5 73 -12 16 -13 12 -14
-30z"/>
<path d="M5964 11177 c-11 -29 0 -92 16 -92 22 0 26 77 6 94 -13 11 -17 11
-22 -2z"/>
<path d="M6020 11011 c0 -28 4 -52 9 -56 15 -8 31 29 31 69 0 29 -4 36 -20 36
-17 0 -20 -7 -20 -49z"/>
<path d="M5660 10735 c0 -15 4 -24 10 -20 6 3 10 12 10 20 0 8 -4 17 -10 20
-6 4 -10 -5 -10 -20z"/>
<path d="M5815 10338 c-9 -22 4 -43 17 -30 7 7 7 16 0 29 -10 17 -11 17 -17 1z"/>
<path d="M5981 9964 c0 -11 3 -14 6 -6 3 7 2 16 -1 19 -3 4 -6 -2 -5 -13z"/>
<path d="M6031 9884 c0 -11 3 -14 6 -6 3 7 2 16 -1 19 -3 4 -6 -2 -5 -13z"/>
<path d="M6130 9646 c0 -9 5 -16 10 -16 6 0 10 4 10 9 0 6 -4 13 -10 16 -5 3
-10 -1 -10 -9z"/>
<path d="M6180 9580 c0 -5 5 -10 10 -10 6 0 10 5 10 10 0 6 -4 10 -10 10 -5 0
-10 -4 -10 -10z"/>
<path d="M6340 9286 c0 -19 5 -26 20 -26 17 0 19 3 10 19 -16 32 -30 34 -30 7z"/>
<path d="M6755 9227 c-4 -10 -3 -28 3 -40 6 -12 13 -38 16 -58 4 -20 16 -45
29 -57 12 -12 36 -38 52 -58 54 -65 118 -125 129 -121 6 3 19 0 29 -5 11 -5
17 -5 17 2 0 5 -7 10 -15 10 -8 0 -18 12 -21 28 -7 27 -23 51 -76 116 -16 19
-28 39 -28 45 0 6 -8 19 -17 29 -10 9 -26 30 -36 45 -9 15 -25 27 -35 27 -11
0 -23 12 -29 28 -9 24 -11 25 -18 9z"/>
<path d="M6390 9221 c0 -6 5 -13 10 -16 6 -3 10 1 10 9 0 9 -4 16 -10 16 -5 0
-10 -4 -10 -9z"/>
<path d="M6450 9110 c0 -5 5 -10 10 -10 6 0 10 5 10 10 0 6 -4 10 -10 10 -5 0
-10 -4 -10 -10z"/>
<path d="M6502 9030 c1 -13 9 -25 16 -28 17 -5 15 23 -4 39 -14 11 -15 10 -12
-11z"/>
<path d="M6550 8966 c0 -16 5 -26 15 -26 8 0 15 6 15 14 0 7 -7 19 -15 26 -13
11 -15 8 -15 -14z"/>
<path d="M6601 8903 c0 -5 4 -17 9 -28 8 -18 9 -17 9 8 1 15 -3 27 -9 27 -5 0
-10 -3 -9 -7z"/>
<path d="M6654 8816 c-8 -22 2 -46 20 -46 23 0 26 27 6 45 -18 16 -20 16 -26
1z"/>
<path d="M6707 8729 c4 -13 9 -17 15 -11 11 11 3 32 -12 32 -4 0 -6 -9 -3 -21z"/>
<path d="M6868 8504 c-2 -5 -4 -106 -3 -224 1 -182 3 -220 18 -245 9 -16 22
-54 28 -84 6 -30 17 -61 25 -68 7 -8 18 -33 24 -56 6 -23 17 -46 24 -52 7 -5
21 -26 31 -45 10 -19 26 -41 36 -48 11 -7 19 -18 19 -24 0 -5 11 -24 26 -40
14 -17 28 -44 31 -59 3 -16 12 -29 20 -29 8 0 20 -13 26 -30 6 -16 17 -30 23
-30 11 0 26 -19 79 -106 12 -18 28 -41 36 -51 9 -10 19 -26 22 -35 4 -10 13
-18 22 -18 9 0 21 -13 26 -30 6 -16 19 -32 30 -35 10 -4 19 -10 19 -15 0 -11
43 -63 113 -134 31 -33 57 -63 57 -67 0 -4 9 -14 20 -22 10 -7 24 -25 29 -40
7 -17 18 -27 30 -27 11 0 23 -9 26 -20 3 -11 12 -20 19 -20 18 0 86 -73 86
-92 0 -10 10 -18 23 -20 12 -2 26 -13 32 -25 5 -13 14 -23 19 -23 14 0 86 -79
86 -95 0 -8 10 -15 23 -17 14 -2 23 -11 25 -25 2 -14 10 -23 20 -23 19 0 63
-35 150 -117 30 -29 61 -53 68 -53 7 0 18 -9 24 -19 5 -11 20 -21 32 -23 15
-2 24 -11 26 -25 2 -14 10 -23 21 -23 9 0 32 -13 51 -30 19 -16 43 -29 52 -30
10 0 22 -9 28 -19 5 -11 20 -23 31 -26 20 -7 47 -29 109 -90 29 -28 80 -34 80
-10 0 17 9 19 28 6 10 -6 8 -10 -8 -14 -37 -10 -21 -41 27 -51 28 -6 44 -16
52 -32 6 -14 19 -24 31 -24 12 0 32 -11 45 -25 14 -13 41 -27 60 -31 20 -3 41
-14 48 -24 7 -11 32 -20 64 -25 36 -5 52 -12 56 -24 2 -10 23 -22 48 -30 24
-7 50 -22 57 -32 8 -12 25 -19 45 -19 37 0 51 -8 60 -32 9 -24 52 -23 77 2 11
11 18 21 15 21 -3 1 -9 3 -15 4 -5 1 -26 3 -46 4 -34 1 -36 3 -32 31 3 21 0
30 -9 30 -8 0 -11 -5 -7 -11 5 -8 1 -8 -14 0 -11 6 -29 11 -40 11 -13 0 -22 9
-26 25 -6 23 -11 25 -57 25 l-51 0 31 33 c26 27 37 32 66 29 19 -2 33 -9 32
-15 -2 -9 11 -14 91 -34 13 -3 35 -16 48 -28 22 -20 83 -43 157 -59 36 -8 38
20 2 36 -14 6 -25 19 -25 28 0 12 -11 20 -35 24 -19 4 -47 18 -61 31 -15 14
-35 25 -44 25 -10 0 -30 10 -46 23 -15 12 -37 27 -49 32 -11 6 -47 29 -80 53
-33 23 -107 74 -165 113 -127 85 -272 186 -364 254 -128 96 -251 189 -256 194
-3 3 -36 33 -75 66 -116 99 -566 544 -602 595 -8 11 -34 40 -58 63 -45 45 -96
104 -130 153 -11 16 -29 38 -40 49 -30 29 -79 96 -139 186 -16 24 -32 46 -36
49 -19 15 -125 193 -186 313 -12 24 -29 49 -38 56 -9 7 -16 19 -16 26 0 6 -11
33 -25 59 -14 26 -30 68 -37 93 -8 33 -19 50 -39 62 -16 9 -33 27 -39 41 -15
33 -86 115 -92 104z m2002 -2400 c0 -8 -4 -12 -10 -9 -5 3 -10 10 -10 16 0 5
5 9 10 9 6 0 10 -7 10 -16z m93 -58 c23 -13 59 -27 78 -31 22 -4 38 -14 44
-28 6 -12 21 -24 34 -27 l25 -6 -24 -22 c-13 -12 -29 -22 -36 -22 -7 0 -14 -4
-16 -8 -1 -5 -20 -7 -40 -4 -21 2 -36 8 -33 12 3 5 0 12 -6 16 -8 5 -7 9 2 14
10 7 10 11 0 24 -15 18 -41 21 -41 6 0 -5 -7 -10 -15 -10 -12 0 -11 6 5 35 15
27 16 35 6 35 -8 0 -24 9 -37 20 -35 29 -1 26 54 -4z m137 -150 c0 -3 -4 -8
-10 -11 -5 -3 -10 -1 -10 4 0 6 5 11 10 11 6 0 10 -2 10 -4z"/>
<path d="M19835 7590 c-3 -5 1 -10 9 -10 9 0 16 5 16 10 0 6 -4 10 -9 10 -6 0
-13 -4 -16 -10z"/>
<path d="M8066 7381 c-3 -5 1 -14 9 -21 12 -10 15 -10 15 3 0 19 -16 31 -24
18z"/>
<path d="M19575 7291 c-3 -5 -2 -12 3 -15 5 -3 9 1 9 9 0 17 -3 19 -12 6z"/>
<path d="M19507 7243 c-14 -13 -6 -33 13 -33 13 0 20 7 20 20 0 19 -20 27 -33
13z"/>
<path d="M19347 7093 c-4 -3 -7 -15 -7 -25 0 -29 44 -20 48 10 3 16 -2 22 -16
22 -10 0 -22 -3 -25 -7z"/>
<path d="M19177 6943 c-15 -14 -7 -43 13 -43 16 0 40 26 40 44 0 8 -45 7 -53
-1z"/>
<path d="M17400 6283 c-8 -3 -18 -12 -23 -19 -4 -7 -21 -15 -37 -19 -17 -4
-37 -16 -45 -28 -8 -12 -30 -26 -49 -32 -49 -14 -48 -29 1 -33 33 -2 44 1 52
16 6 11 26 23 45 26 20 4 42 17 51 29 8 12 30 27 47 33 44 15 48 34 6 33 -18
0 -40 -3 -48 -6z"/>
<path d="M17131 6130 c-18 -4 -36 -12 -40 -18 -3 -5 -29 -18 -58 -27 -28 -9
-59 -25 -69 -36 -9 -10 -21 -19 -25 -19 -4 0 -20 -5 -36 -11 -22 -8 -24 -12
-13 -19 25 -16 69 -11 89 9 11 11 39 26 62 32 25 8 44 20 47 31 4 18 20 24 72
30 14 2 26 10 28 21 4 18 -4 19 -57 7z"/>
<path d="M16775 5960 c-4 -6 7 -10 24 -10 17 0 31 5 31 10 0 6 -11 10 -24 10
-14 0 -28 -4 -31 -10z"/>
<path d="M16651 5911 c-10 -6 -10 -10 -1 -16 16 -10 82 4 75 16 -8 11 -55 12
-74 0z"/>
<path d="M16550 5860 c-26 -5 -31 -8 -18 -14 22 -10 73 -4 71 9 -2 13 -11 14
-53 5z"/>
<path d="M10475 5784 c-51 -7 -105 -24 -105 -34 0 -4 -22 -16 -50 -25 -29 -10
-51 -24 -55 -35 -3 -10 -19 -23 -35 -29 -17 -5 -30 -17 -30 -26 0 -9 -16 -23
-35 -31 -43 -18 -45 -30 -4 -39 23 -5 36 -2 52 13 12 11 39 22 59 26 24 4 39
13 43 26 4 14 15 20 36 20 19 0 40 10 59 29 30 28 35 29 160 36 126 7 131 6
178 -18 35 -18 71 -27 137 -32 64 -5 96 -12 110 -25 15 -13 45 -19 125 -23 80
-5 108 -10 117 -23 13 -18 70 -33 126 -34 26 0 37 -4 37 -15 0 -8 11 -22 25
-31 22 -15 63 -16 143 -4 1 0 2 9 2 19 0 24 -46 41 -107 41 -29 0 -45 5 -49
15 -8 19 -66 35 -126 35 -34 0 -48 4 -48 14 0 16 -36 24 -140 33 -61 4 -80 10
-102 30 -21 20 -43 27 -103 34 -44 5 -97 18 -124 31 -38 19 -64 23 -156 24
-60 1 -123 0 -140 -2z"/>
<path d="M16255 5750 c-3 -5 3 -10 14 -10 12 0 21 5 21 10 0 6 -6 10 -14 10
-8 0 -18 -4 -21 -10z"/>
<path d="M16101 5701 c-12 -8 -10 -11 11 -16 32 -8 68 -3 71 10 3 13 -64 18
-82 6z"/>
<path d="M9488 5695 c-3 -3 -1 -17 6 -30 9 -20 19 -25 49 -25 20 0 37 4 37 10
0 13 -38 32 -53 27 -7 -2 -17 3 -22 10 -6 8 -13 11 -17 8z"/>
<path d="M9630 5611 c0 -21 19 -31 55 -31 36 0 39 17 6 35 -40 20 -61 19 -61
-4z"/>
<path d="M9776 5551 c-8 -12 50 -25 66 -15 8 5 6 10 -8 15 -27 11 -52 11 -58
0z"/>
<path d="M15531 5541 c-12 -8 -9 -11 12 -16 34 -9 100 3 92 16 -8 12 -85 12
-104 0z"/>
<path d="M10068 5508 c-21 -5 -38 -13 -38 -18 0 -4 41 -10 91 -12 68 -4 98
-10 117 -25 19 -14 59 -23 140 -31 88 -10 117 -17 132 -32 16 -16 34 -20 88
-20 38 0 71 3 75 6 3 3 -3 16 -14 27 -16 18 -34 22 -94 25 -41 2 -75 8 -75 12
0 26 -33 37 -111 39 -61 1 -88 6 -104 19 -26 21 -148 27 -207 10z"/>
<path d="M11613 5503 c-36 -5 -41 -14 -19 -33 10 -8 33 -9 73 -5 69 9 96 20
67 28 -34 9 -88 14 -121 10z"/>
<path d="M11970 5481 c-25 -7 -39 -37 -23 -51 4 -4 53 -11 108 -15 88 -6 103
-10 123 -31 27 -28 41 -32 152 -37 59 -3 96 -11 122 -24 28 -15 66 -22 165
-27 70 -4 153 -13 183 -21 149 -37 820 -54 1025 -26 111 15 145 26 105 34
-139 28 -260 40 -520 52 -330 16 -370 20 -414 42 -23 12 -60 14 -200 9 -94 -3
-192 -8 -217 -12 -40 -5 -53 -2 -88 22 -38 25 -54 28 -164 35 -78 4 -146 14
-187 27 -79 26 -137 33 -170 23z"/>
<path d="M15675 5430 c-18 -8 -18 -9 5 -9 14 0 34 4 45 9 18 8 18 9 -5 9 -14
0 -34 -4 -45 -9z"/>
<path d="M10758 5372 c-71 -6 -34 -43 54 -53 38 -4 68 -14 81 -27 12 -11 38
-22 58 -26 20 -3 45 -17 57 -31 16 -18 32 -25 60 -25 21 0 48 -7 61 -17 13 -9
53 -22 90 -30 36 -7 77 -22 91 -32 14 -10 50 -21 80 -24 30 -4 67 -16 82 -27
15 -11 49 -23 75 -26 27 -3 61 -15 77 -27 23 -16 51 -22 126 -26 67 -4 104
-11 123 -24 15 -10 63 -22 108 -28 53 -6 90 -17 108 -30 22 -16 49 -22 127
-26 74 -4 104 -10 119 -23 14 -12 45 -19 105 -23 92 -7 144 1 148 21 4 20 -42
32 -141 36 -51 2 -98 5 -104 5 -7 1 -13 9 -13 20 0 21 -26 31 -82 31 -21 0
-38 5 -38 10 0 6 12 9 27 8 22 -2 28 1 28 17 1 28 -34 65 -62 65 -13 0 -26 8
-30 18 -10 27 -24 32 -93 32 -37 0 -71 5 -76 10 -8 8 -93 22 -191 30 -1 0 -13
11 -26 25 -17 19 -37 27 -77 32 -38 4 -63 13 -80 29 -14 13 -40 26 -57 30 -17
3 -42 17 -54 30 -12 13 -34 24 -48 24 -14 0 -38 12 -53 27 -31 30 -63 33 -153
17 -31 -6 -50 -14 -50 -23 0 -36 -58 -39 -73 -4 -5 13 -19 18 -52 19 -25 0
-58 4 -74 8 -26 8 -28 7 -21 -13 5 -18 2 -21 -20 -21 -14 0 -24 4 -21 9 3 5
-2 12 -11 15 -15 6 -15 9 -3 17 12 9 10 9 -5 3 -19 -7 -70 -8 -118 -1 -12 1
-39 1 -59 -1z m182 -33 c0 -4 -7 -6 -15 -3 -8 4 -15 10 -15 15 0 4 7 6 15 3 8
-4 15 -10 15 -15z m128 -36 c-10 -2 -18 -8 -18 -13 0 -4 -7 -10 -15 -14 -10
-4 -15 1 -15 14 0 16 6 20 33 19 17 -1 24 -3 15 -6z m873 -280 c13 -17 13 -17
-6 -3 -11 8 -22 16 -24 17 -2 2 0 3 6 3 6 0 17 -8 24 -17z"/>
<path d="M15010 5314 c0 -9 5 -14 12 -12 18 6 21 28 4 28 -9 0 -16 -7 -16 -16z"/>
<path d="M14376 4941 c-3 -4 -19 -11 -36 -14 -57 -12 -32 -27 44 -27 76 0 91
6 80 34 -7 17 -78 23 -88 7z"/>
<path d="M14755 4891 c-11 -5 -25 -6 -31 -4 -6 2 -14 -3 -18 -12 -8 -22 9 -26
104 -23 73 3 84 6 98 26 l14 22 -73 -1 c-41 0 -83 -4 -94 -8z"/>
<path d="M13995 4851 c-6 -5 -34 -12 -63 -15 -41 -5 -52 -4 -46 5 5 9 -6 10
-47 4 -30 -4 -76 -7 -104 -6 -334 7 -884 8 -895 1 -13 -8 -13 -12 3 -27 25
-25 292 -30 1082 -19 231 3 430 5 443 6 30 0 30 36 0 46 -12 3 -90 3 -174 -1
-105 -4 -154 -3 -158 4 -9 13 -28 14 -41 2z"/>
<path d="M12696 4835 c6 -15 42 -19 81 -9 37 10 15 24 -37 24 -40 0 -48 -3
-44 -15z"/>
</g>
</svg>
