<?xml version="1.0" standalone="no"?>
<!DOCTYPE svg PUBLIC "-//W3C//DTD SVG 20010904//EN"
 "http://www.w3.org/TR/2001/REC-SVG-20010904/DTD/svg10.dtd">
<svg version="1.0" xmlns="http://www.w3.org/2000/svg"
 width="2048.000000pt" height="2048.000000pt" viewBox="0 0 2048.000000 2048.000000"
 preserveAspectRatio="xMidYMid meet">
<metadata>
Created by potrace 1.14, written by Peter Selinger 2001-2017
</metadata>
<g transform="translate(0.000000,2048.000000) scale(0.100000,-0.100000)"
fill="#000000" stroke="none">
<path d="M9825 20180 c-1379 -64 -2659 -384 -3882 -970 -141 -67 -153 -75
-153 -100 0 -15 -9 -35 -20 -45 -11 -10 -20 -29 -20 -42 0 -14 -6 -23 -15 -23
-11 0 -15 -12 -15 -45 0 -25 -4 -45 -10 -45 -16 0 -11 -26 9 -44 10 -9 25 -14
33 -11 9 4 24 -2 33 -12 17 -16 17 -18 2 -21 -20 -4 -22 -19 -4 -25 6 -2 2 -3
-9 -1 -15 3 -21 -1 -20 -12 1 -10 -64 -55 -184 -128 -102 -62 -216 -132 -254
-156 -71 -43 -255 -165 -358 -236 -31 -21 -96 -66 -145 -99 -73 -49 -142 -101
-283 -212 -146 -115 -302 -240 -335 -267 -16 -13 -41 -34 -55 -46 -28 -23
-181 -159 -298 -265 -43 -38 -98 -88 -122 -110 -25 -22 -79 -71 -120 -109 -77
-70 -142 -129 -202 -179 -18 -16 -46 -46 -62 -68 -18 -23 -33 -35 -36 -28 -4
6 -15 -5 -24 -25 -16 -35 -36 -48 -36 -24 0 17 -11 3 -15 -19 -1 -10 -8 -17
-14 -15 -6 1 -11 -4 -11 -11 0 -14 -37 -53 -44 -46 -11 12 -16 69 -7 69 6 0
11 -6 11 -14 0 -8 5 -18 11 -22 8 -5 10 1 7 20 -4 18 -1 26 8 26 8 0 14 5 14
12 0 7 12 25 27 40 25 27 26 28 6 28 -12 0 -24 -6 -27 -12 -5 -10 -7 -10 -12
0 -3 6 -23 12 -45 12 -27 0 -39 4 -39 14 0 12 -23 15 -112 18 l-111 3 -98
-110 c-550 -619 -1020 -1305 -1405 -2050 -173 -336 -366 -778 -408 -938 -29
-110 -60 -215 -116 -397 -23 -74 -48 -155 -55 -180 -21 -71 -61 -205 -99 -331
-31 -101 -59 -203 -147 -539 -11 -41 -30 -111 -43 -155 -165 -555 -254 -1548
-216 -2415 51 -1146 275 -2198 695 -3260 889 -2245 2603 -4117 4769 -5207
1075 -540 2182 -870 3371 -1002 398 -45 610 -55 1095 -55 470 0 614 6 1010 45
1513 148 2983 652 4291 1471 1092 685 2062 1602 2822 2668 413 579 816 1305
1073 1931 154 376 394 1130 483 1514 63 276 119 613 155 945 77 691 88 879 88
1425 0 486 -14 798 -47 1045 -129 959 -253 1494 -536 2320 -156 455 -220 610
-430 1030 -1164 2334 -3224 4132 -5694 4970 -820 278 -1637 442 -2515 505
-263 19 -848 27 -1105 15z m1020 -514 c94 -9 226 -22 295 -30 69 -8 154 -17
190 -21 178 -16 881 -171 1115 -244 33 -11 139 -43 235 -71 347 -103 752 -251
1085 -397 170 -75 649 -322 641 -330 -2 -3 -35 11 -73 30 -37 19 -86 44 -108
55 -22 11 -94 46 -160 77 -66 31 -131 62 -145 69 -14 8 -38 16 -53 20 -15 4
-25 11 -22 16 3 6 -1 7 -9 4 -9 -3 -16 -2 -16 4 0 5 -12 13 -27 17 -15 3 -50
17 -79 31 -28 13 -58 24 -67 24 -10 0 -17 4 -17 8 0 5 -26 19 -57 31 -32 12
-74 31 -94 42 -20 10 -48 19 -62 19 -14 0 -29 5 -32 10 -3 6 -15 10 -25 10
-11 0 -44 11 -74 25 -30 14 -64 25 -75 25 -11 0 -33 5 -48 11 -50 21 -67 26
-124 43 -31 9 -65 16 -77 16 -12 0 -22 4 -22 8 0 4 -33 16 -72 26 -72 19 -115
34 -171 62 -16 8 -42 14 -58 14 -20 0 -28 4 -23 12 4 7 3 8 -5 4 -6 -4 -33 -1
-59 7 -26 9 -68 18 -94 22 -26 3 -50 10 -52 14 -3 5 -34 14 -68 21 -35 6 -76
18 -93 25 -30 13 -61 22 -160 46 -27 7 -55 16 -61 20 -6 5 -37 13 -70 18 -32
6 -90 17 -129 26 -38 9 -89 18 -111 20 -23 1 -73 13 -110 25 -38 12 -86 22
-107 21 -25 0 -36 3 -31 10 4 8 -1 9 -15 4 -12 -3 -37 -1 -57 5 -41 14 -43 13
-319 -139 -82 -45 -161 -87 -175 -94 -15 -8 -26 -23 -28 -38 -3 -26 -4 -26
-42 -13 -33 11 -43 11 -69 -2 -17 -8 -33 -19 -36 -25 -4 -5 -19 -9 -35 -9 -16
0 -49 -9 -72 -19 -24 -11 -69 -28 -100 -37 -32 -9 -58 -20 -58 -23 0 -9 177
-7 186 2 4 4 0 7 -9 7 -9 0 -17 3 -17 8 0 4 21 7 48 6 26 0 57 6 68 13 13 8
32 11 47 8 15 -4 41 2 71 15 38 18 56 21 101 15 45 -5 56 -4 61 9 8 20 34 21
34 1 0 -8 9 -15 20 -15 11 0 23 -7 26 -15 8 -20 41 -19 53 2 9 16 11 16 31 -2
12 -11 19 -27 17 -37 -3 -10 -2 -16 1 -14 17 10 101 15 106 7 3 -5 15 -7 26
-4 11 3 20 1 20 -5 0 -6 -8 -10 -17 -10 -32 3 -73 -12 -73 -26 0 -18 36 -27
83 -19 30 4 37 2 37 -11 0 -9 -4 -16 -10 -16 -5 0 -10 -20 -10 -44 0 -41 2
-45 28 -49 15 -3 0 -4 -33 -4 l-60 2 -3 -44 -3 -44 32 7 c17 3 47 6 65 6 28 0
34 4 35 23 0 22 0 22 12 -2 9 -19 9 -25 -1 -29 -21 -7 -13 -22 12 -22 27 0 42
-15 26 -25 -5 -3 -10 -11 -10 -17 0 -15 68 -3 90 17 17 16 70 21 70 7 0 -4 -5
-13 -11 -19 -15 -15 23 -27 57 -19 23 6 34 26 14 26 -5 0 -10 4 -10 9 0 6 23
7 54 4 48 -5 54 -3 59 16 3 11 12 21 21 21 22 0 20 -17 -4 -32 -11 -7 -20 -23
-20 -35 0 -18 6 -23 25 -23 32 0 65 33 65 66 0 16 5 24 13 22 7 -3 16 -39 22
-92 8 -68 14 -91 29 -102 25 -18 36 -18 36 1 0 8 -9 15 -20 15 -29 0 -29 76
-1 85 14 4 21 17 24 43 2 20 3 13 2 -16 -2 -47 2 -56 32 -88 18 -19 37 -32 43
-29 5 3 10 1 10 -4 0 -6 20 -11 45 -11 25 0 45 -5 45 -10 0 -7 8 -7 22 1 l21
12 -24 12 -24 13 28 11 c49 19 88 -16 50 -44 -15 -11 -15 -14 4 -39 l21 -26
16 25 c20 30 32 32 46 5 8 -14 7 -25 -2 -39 -10 -16 -9 -27 5 -56 10 -20 17
-59 17 -90 0 -50 3 -58 33 -84 l32 -30 -32 -28 c-29 -26 -31 -34 -35 -100 l-3
-71 45 2 45 1 3 -42 c3 -44 -11 -59 -21 -23 -3 11 -10 20 -16 20 -6 0 -15 -9
-21 -20 -12 -22 -46 -27 -52 -8 -3 7 -14 9 -31 4 -20 -5 -25 -11 -20 -24 6
-16 5 -16 -14 1 -22 20 -44 22 -60 6 -6 -6 -19 -9 -29 -7 -11 2 -24 -2 -29
-10 -7 -8 -41 -17 -85 -21 -42 -4 220 -10 585 -14 708 -7 1207 -22 1235 -37
23 -12 33 -89 14 -109 -8 -9 -72 -20 -196 -32 -370 -37 -695 -70 -778 -79 -47
-5 -134 -14 -195 -21 -60 -6 -119 -16 -130 -22 -11 -6 -33 -11 -48 -13 -50 -3
-42 -14 11 -14 62 0 67 -15 11 -31 -37 -11 -59 -32 -47 -44 2 -3 80 -9 174
-15 93 -6 306 -25 474 -41 168 -16 368 -33 445 -39 77 -6 192 -17 255 -25 188
-24 587 -63 860 -85 140 -11 352 -29 470 -40 266 -24 352 -29 657 -35 206 -4
244 -3 256 10 14 13 21 10 66 -28 271 -229 612 -577 792 -808 23 -30 75 -88
115 -129 70 -72 118 -129 222 -269 26 -35 66 -89 90 -120 129 -170 187 -250
275 -381 54 -80 135 -199 180 -265 45 -67 129 -204 186 -305 58 -102 137 -241
176 -310 104 -181 424 -844 413 -855 -9 -9 -815 350 -863 385 -5 4 -93 44
-195 90 -193 86 -703 336 -970 476 -85 44 -213 111 -285 149 -193 101 -363
203 -557 336 -95 65 -240 162 -323 215 -225 146 -667 448 -773 528 -52 39
-113 85 -136 101 -24 17 -65 49 -93 73 -30 25 -61 42 -76 42 -14 0 -63 -22
-109 -48 -45 -27 -141 -82 -213 -122 -179 -101 -600 -350 -715 -423 -169 -108
-376 -227 -565 -327 -66 -35 -148 -80 -183 -102 -34 -21 -66 -38 -71 -38 -12
0 -109 -96 -146 -144 -17 -22 -36 -46 -42 -55 -24 -31 18 93 47 139 71 113
145 273 192 414 16 50 35 101 43 115 7 14 16 45 20 68 4 24 11 45 16 49 5 3 9
11 9 18 0 16 -34 56 -48 56 -6 0 -14 5 -17 10 -11 18 21 10 43 -11 24 -21 45
-18 36 6 -4 8 -10 12 -15 9 -5 -3 -9 4 -9 15 0 16 -6 21 -25 21 -14 0 -25 5
-25 10 0 6 5 10 11 10 6 0 9 6 6 13 -2 6 2 20 11 29 12 14 12 21 3 32 -17 20
-5 57 16 49 13 -5 13 -3 4 14 -8 16 -7 24 4 33 8 7 15 20 15 29 0 9 9 41 21
71 34 90 38 109 28 116 -6 3 -8 13 -5 20 5 13 3 13 -15 0 -48 -33 -216 -320
-383 -653 -141 -282 -134 -269 -181 -353 -83 -148 -125 -231 -125 -246 0 -8 7
-17 15 -20 8 -4 15 -11 15 -16 0 -6 -7 -8 -15 -4 -8 3 -14 0 -12 -6 1 -6 -19
-27 -44 -46 -46 -35 -47 -37 -108 -220 -99 -296 -176 -453 -271 -555 -79 -87
-109 -95 -355 -99 -64 -1 -429 128 -660 232 -22 10 -107 48 -190 85 -82 37
-193 89 -245 115 -314 158 -711 304 -1125 416 -132 35 -267 72 -300 82 -33 9
-78 17 -101 17 -40 0 -79 -20 -69 -35 3 -5 60 -30 128 -56 152 -58 276 -110
389 -163 48 -23 90 -41 92 -41 8 0 378 -171 546 -253 85 -41 205 -105 265
-142 135 -81 502 -263 686 -339 183 -75 394 -136 477 -136 41 -1 72 -19 72
-42 0 -19 -32 -104 -95 -253 -89 -212 -181 -500 -199 -625 l-6 -45 50 2 c28 0
58 7 67 15 20 16 64 112 109 236 105 289 263 639 308 681 15 14 41 25 68 28
68 7 106 -26 233 -200 70 -95 152 -193 226 -266 121 -122 109 -114 372 -248
101 -52 132 -72 88 -58 -29 9 -69 -4 -74 -26 -7 -25 -37 -24 -44 1 -5 17 -14
20 -59 20 l-54 0 0 -45 c0 -33 4 -45 15 -45 11 0 15 -12 15 -49 0 -31 -5 -53
-15 -61 -12 -10 -15 -10 -15 4 0 12 -10 16 -45 16 -44 0 -45 -1 -45 -32 0 -30
0 -31 -20 -13 -19 17 -20 17 -37 -14 -10 -17 -21 -31 -25 -31 -5 0 -8 -13 -8
-30 0 -29 -2 -30 -45 -30 -33 0 -45 -4 -45 -15 0 -8 7 -15 15 -15 11 0 15 -12
15 -45 0 -25 -4 -45 -10 -45 -5 0 -10 -21 -10 -47 -1 -38 -3 -44 -11 -30 -7
11 -22 17 -49 17 -54 0 -51 18 3 22 l42 3 3 58 c2 35 -1 57 -8 57 -5 0 -10
-18 -10 -40 0 -38 -2 -40 -30 -40 -29 0 -30 2 -31 48 -1 26 -4 38 -6 27 -3
-11 -11 -24 -19 -28 -8 -4 -14 -21 -14 -37 0 -16 -4 -32 -10 -35 -15 -9 -12
-41 4 -54 10 -8 13 -23 9 -45 -3 -20 -1 -36 6 -40 6 -4 11 -33 11 -66 0 -54
-2 -58 -21 -53 -17 5 -19 2 -15 -23 2 -16 5 -40 5 -53 1 -16 6 -21 15 -18 8 3
17 -1 20 -9 3 -8 12 -14 20 -14 7 0 13 -8 12 -17 -1 -12 7 -19 26 -21 14 -2
32 -11 40 -20 8 -10 8 -13 1 -9 -6 4 -14 3 -18 -3 -3 -5 -28 -10 -55 -10 -27
0 -61 -5 -76 -10 -39 -15 -53 3 -58 80 -13 187 -68 507 -117 675 -54 184 -147
404 -175 412 -7 2 -33 -33 -59 -77 -25 -45 -61 -98 -80 -118 -67 -75 -116
-148 -130 -196 -14 -47 -14 -80 0 -36 10 31 29 19 38 -26 5 -21 10 -457 13
-969 l5 -930 -52 55 c-28 30 -89 114 -136 185 -224 340 -277 416 -337 487 -36
42 -82 89 -102 105 -20 15 -55 43 -78 62 -97 80 -228 111 -472 111 -102 0
-144 -4 -151 -12 -5 -7 -31 -65 -57 -128 -52 -126 -105 -227 -194 -365 -32
-49 -98 -153 -147 -230 -144 -228 -154 -242 -206 -308 -28 -34 -90 -103 -138
-153 -49 -50 -106 -117 -127 -149 l-39 -59 -5 55 c-9 95 -97 236 -166 265 -17
7 -60 16 -95 20 -52 5 -67 10 -75 28 -35 67 -46 85 -60 97 -9 7 -18 9 -22 3
-4 -5 -34 -10 -67 -12 -32 -1 -62 -8 -66 -14 -4 -6 -18 -8 -34 -4 -15 4 -32 3
-38 -3 -8 -6 -29 -6 -57 -1 -65 13 -118 12 -122 -2 -3 -9 -14 -7 -40 5 -20 9
-43 14 -52 11 -8 -3 -30 3 -48 14 -35 22 -68 15 -68 -14 0 -23 -29 -29 -44 -9
-8 11 -15 14 -19 8 -7 -11 -57 -5 -57 6 0 4 6 13 13 20 10 10 9 15 -3 24 -8 7
-15 19 -15 27 0 8 -9 16 -20 18 -26 5 -65 41 -76 70 -6 16 -3 40 10 80 22 64
14 87 -26 77 -23 -5 -24 -4 -17 32 3 21 17 54 30 74 21 31 31 59 20 59 -16 0
-114 -51 -127 -66 -9 -11 -38 -63 -65 -116 -27 -53 -50 -95 -52 -93 -5 5 112
352 145 430 14 33 61 131 104 217 73 148 115 255 104 266 -3 3 -23 0 -44 -7
-46 -13 -74 -48 -177 -221 -145 -245 -225 -360 -322 -462 -50 -53 -67 -88 -76
-153 -3 -23 29 -87 80 -160 18 -27 34 -57 34 -65 0 -22 -96 -217 -170 -345
-35 -61 -133 -213 -219 -340 -152 -225 -341 -513 -341 -520 0 -2 -17 -32 -39
-67 -21 -35 -90 -151 -154 -258 -63 -107 -135 -217 -161 -244 l-45 -49 -848 7
c-467 4 -1503 11 -2303 16 -1523 10 -1897 16 -1917 33 -9 7 -13 46 -13 132 l0
122 131 5 c73 3 461 1 863 -3 868 -9 3310 -9 3718 0 270 6 289 7 307 26 18 18
181 333 181 349 0 3 57 121 126 262 117 236 229 443 294 539 83 124 160 263
154 279 -4 11 -2 15 8 11 12 -5 44 41 103 150 6 11 23 39 38 62 15 24 27 47
27 53 0 5 22 22 50 38 27 15 50 31 50 35 0 5 13 19 29 33 43 36 262 319 292
377 3 7 12 23 19 37 8 14 34 63 58 110 56 107 123 208 156 237 35 31 83 54
104 51 13 -2 18 5 20 30 2 24 8 32 23 32 12 0 19 7 19 20 0 23 -10 26 -29 8
-11 -11 -13 -8 -9 14 4 20 0 29 -16 36 -20 9 -18 11 17 26 45 20 51 52 11 62
-16 4 -30 17 -36 35 -5 16 -16 29 -24 29 -8 0 -14 10 -14 25 0 25 -23 35 -35
15 -3 -5 -19 -10 -35 -10 -16 0 -31 -4 -35 -10 -3 -5 -12 -7 -20 -4 -8 3 -51
-3 -97 -15 -121 -29 -295 -50 -528 -62 -225 -12 -295 -10 -662 23 l-248 21
-106 -32 c-138 -43 -182 -40 -256 16 -120 90 -130 89 -260 -34 -57 -53 -105
-99 -108 -103 -3 -3 -23 -19 -45 -35 -22 -17 -42 -33 -45 -36 -12 -16 -181
-119 -230 -142 -86 -39 -180 -67 -226 -67 -44 0 -106 37 -284 169 -77 57 -398
224 -543 282 -56 22 -115 47 -132 55 -52 24 -158 64 -170 64 -7 0 -38 14 -69
30 -33 18 -65 28 -75 25 -11 -3 -21 0 -24 9 -8 21 -116 58 -156 54 -29 -4 -31
-3 -15 9 16 11 13 13 -24 13 -23 0 -41 4 -40 9 4 14 -48 58 -95 80 -23 11 -62
35 -87 53 -83 60 -179 119 -212 130 -18 6 -47 22 -64 35 -17 12 -34 20 -38 16
-4 -4 -10 -3 -14 3 -9 13 -101 74 -112 74 -4 0 -10 4 -12 9 -6 17 -180 140
-213 151 -28 9 -48 4 -176 -45 -149 -58 -322 -110 -399 -119 -25 -3 -116 -8
-203 -11 l-157 -5 6 27 c11 47 193 592 227 682 l32 83 115 3 c63 2 329 6 590
9 522 8 777 19 794 36 18 18 -11 28 -98 34 -143 11 -753 26 -1043 26 -196 0
-283 3 -283 11 0 6 30 79 66 162 181 414 409 836 672 1247 191 297 305 461
465 664 34 44 87 112 117 151 80 105 204 257 293 360 185 212 721 730 942 910
33 26 110 89 170 140 219 182 285 231 555 410 435 289 711 448 1085 623 257
120 446 201 604 258 69 25 185 68 258 95 294 109 920 292 1243 364 291 65 778
131 1255 170 105 8 208 17 230 19 106 10 862 -3 1020 -18z m265 -386 c0 -5 -4
-10 -10 -10 -5 0 -10 5 -10 10 0 6 5 10 10 10 6 0 10 -4 10 -10z m275 -40 c3
-5 -3 -10 -15 -10 -12 0 -18 5 -15 10 3 6 10 10 15 10 5 0 12 -4 15 -10z
m-695 -10 c0 -5 -4 -10 -10 -10 -5 0 -10 5 -10 10 0 6 5 10 10 10 6 0 10 -4
10 -10z m744 -65 c-4 -8 -8 -15 -10 -15 -2 0 -4 7 -4 15 0 8 4 15 10 15 5 0 7
-7 4 -15z m-24 -35 c0 -5 -4 -10 -10 -10 -5 0 -10 5 -10 10 0 6 5 10 10 10 6
0 10 -4 10 -10z m100 -25 c0 -8 -4 -15 -10 -15 -5 0 -7 7 -4 15 4 8 8 15 10
15 2 0 4 -7 4 -15z m-83 -82 c-2 -16 -4 -5 -4 22 0 28 2 40 4 28 2 -13 2 -35
0 -50z m113 -119 c0 -8 -7 -14 -15 -14 -10 0 -15 10 -15 26 0 22 2 25 15 14 8
-7 15 -19 15 -26z m150 16 c0 -5 -7 -10 -15 -10 -8 0 -15 5 -15 10 0 6 7 10
15 10 8 0 15 -4 15 -10z m389 -100 c-16 -11 -29 -4 -29 16 0 12 4 13 21 3 17
-9 19 -13 8 -19z m131 5 c0 -8 -7 -15 -15 -15 -8 0 -15 7 -15 15 0 8 7 15 15
15 8 0 15 -7 15 -15z m-80 -60 c0 -33 -4 -45 -15 -45 -11 0 -15 12 -15 45 0
33 4 45 15 45 11 0 15 -12 15 -45z m2365 -235 c3 -6 -1 -7 -9 -4 -18 7 -21 14
-7 14 6 0 13 -4 16 -10z m-2075 -245 c0 -8 -7 -15 -15 -15 -16 0 -20 12 -8 23
11 12 23 8 23 -8z m60 -89 c0 -17 -14 -29 -23 -20 -8 8 3 34 14 34 5 0 9 -6 9
-14z m-9350 -1476 c-7 -4 -10 -13 -6 -19 4 -7 1 -9 -8 -5 -12 5 -13 10 -4 24
7 10 16 16 21 13 5 -3 4 -9 -3 -13z m-25 -60 c-3 -5 -13 -10 -21 -10 -8 0 -14
5 -14 10 0 6 9 10 21 10 11 0 17 -4 14 -10z m9248 -1195 c-3 -13 -11 -29 -18
-35 -13 -11 -13 3 1 48 7 23 21 12 17 -13z m47 11 c0 -3 -4 -8 -10 -11 -5 -3
-10 -1 -10 4 0 6 5 11 10 11 6 0 10 -2 10 -4z m-100 -96 c0 -5 -4 -10 -10 -10
-5 0 -10 5 -10 10 0 6 5 10 10 10 6 0 10 -4 10 -10z m-30 -84 c0 -2 -8 -10
-17 -17 -16 -13 -17 -12 -4 4 13 16 21 21 21 13z m-90 -66 c0 -5 -5 -10 -11
-10 -5 0 -7 5 -4 10 3 6 8 10 11 10 2 0 4 -4 4 -10z m-19 -523 c-5 -14 -15
-28 -20 -32 -6 -3 -11 -15 -11 -26 0 -11 -13 -40 -30 -64 -16 -24 -30 -48 -30
-52 0 -5 -11 -24 -25 -43 -14 -19 -35 -54 -46 -78 -12 -24 -32 -54 -45 -67
-13 -13 -24 -30 -24 -38 0 -16 -40 -61 -47 -53 -3 3 3 18 13 33 11 15 24 37
31 48 6 11 57 96 112 188 56 93 101 174 101 181 0 13 21 38 27 32 2 -2 -1 -15
-6 -29z m-9401 -1607 c0 -10 -4 -22 -10 -25 -6 -4 -10 7 -10 25 0 18 4 29 10
25 6 -3 10 -15 10 -25z m118 -72 c19 -19 14 -37 -8 -31 -11 3 -20 14 -20 24 0
22 11 24 28 7z m-27 -58 c17 0 9 -18 -10 -23 -12 -3 -22 1 -25 9 -3 8 -1 14 4
14 6 0 11 8 11 18 1 16 2 16 6 0 2 -10 9 -18 14 -18z m-161 -50 c0 -22 -4 -40
-10 -40 -5 0 -10 18 -10 40 0 22 5 40 10 40 6 0 10 -18 10 -40z m485 -10 c3
-5 2 -10 -4 -10 -5 0 -13 5 -16 10 -3 6 -2 10 4 10 5 0 13 -4 16 -10z m-421
-15 c3 -8 1 -15 -4 -15 -6 0 -10 7 -10 15 0 8 2 15 4 15 2 0 6 -7 10 -15z
m9361 -25 c3 -5 -1 -10 -9 -10 -9 0 -16 5 -16 10 0 6 4 10 9 10 6 0 13 -4 16
-10z m-152 -617 c-7 -2 -19 -2 -25 0 -7 3 -2 5 12 5 14 0 19 -2 13 -5z m-1989
-535 c7 -13 72 -138 143 -278 136 -269 261 -483 373 -640 37 -52 75 -111 85
-129 19 -38 19 -54 -9 -356 -20 -214 -35 -471 -45 -750 -5 -126 -13 -242 -20
-258 -14 -36 -50 -49 -125 -45 l-61 3 4 229 c3 201 6 234 23 273 11 25 17 47
14 50 -21 21 -332 32 -380 13 -25 -9 -26 -12 -26 -98 0 -158 -13 -392 -22
-392 -4 0 -8 110 -8 245 0 231 -1 245 -19 255 -19 10 -253 5 -329 -6 -50 -8
-58 -35 -37 -125 22 -97 32 -337 16 -368 -36 -67 -235 -68 -256 -1 -4 12 -8
153 -10 313 -3 307 -17 498 -41 583 -16 57 -72 155 -111 196 l-26 27 28 43
c34 52 162 219 265 348 186 231 280 366 367 528 55 102 147 291 162 333 12 35
26 37 45 7z m3294 -263 c47 -77 137 -230 200 -340 63 -110 181 -306 260 -435
293 -474 305 -495 514 -928 31 -64 59 -109 76 -120 25 -16 173 -17 2489 -17
l2463 0 0 -127 c0 -70 -4 -129 -9 -132 -5 -4 -506 -10 -1113 -16 -606 -5
-1195 -12 -1308 -14 -113 -3 -743 -9 -1400 -12 l-1195 -6 -42 36 c-50 44 -119
140 -240 336 -97 157 -276 433 -405 625 -45 66 -177 263 -295 437 -117 175
-225 341 -239 369 -34 66 -30 88 39 285 58 165 80 207 104 202 9 -2 55 -66
101 -143z m-432 40 c7 -16 -78 -165 -156 -275 -166 -234 -363 -539 -496 -768
-23 -41 -45 -76 -47 -79 -4 -4 -198 274 -280 401 -27 42 -28 45 -13 74 9 17
40 57 69 89 115 126 164 216 227 423 13 41 31 82 41 91 16 14 57 17 291 21
220 4 280 8 308 21 45 20 49 20 56 2z m-5266 -315 c0 -21 2 -26 26 -57 13 -17
24 -34 24 -37 0 -4 16 -29 36 -57 19 -28 33 -53 31 -55 -7 -8 -157 198 -151
207 7 12 34 11 34 -1z m-134 -182 c22 -43 31 -55 208 -287 269 -351 273 -361
287 -696 14 -317 9 -746 -10 -768 -16 -20 -96 -23 -107 -5 -4 7 -7 117 -5 245
l2 233 -55 0 c-73 0 -82 -14 -91 -146 -4 -56 -10 -106 -15 -113 -4 -7 -22 -11
-41 -9 -41 4 -49 28 -21 56 15 15 22 40 27 95 10 103 1 117 -73 117 -58 0
-213 -16 -244 -26 -23 -7 -28 -38 -36 -242 -5 -109 -12 -176 -19 -180 -6 -4
-45 -6 -86 -4 -68 3 -76 6 -81 25 -10 41 -29 781 -23 907 3 69 11 149 17 178
13 60 88 210 210 425 47 81 94 166 104 187 11 22 23 40 27 40 5 0 16 -15 25
-32z m3886 -116 c112 -175 137 -258 99 -319 -44 -69 -170 -101 -278 -69 -191
57 -298 109 -143 70 147 -37 275 -29 330 21 40 36 35 146 -10 237 -68 136 -67
167 2 60z m402 -94 c45 -46 123 -137 174 -203 134 -174 173 -221 206 -246 58
-45 129 -180 111 -209 -9 -14 -42 5 -74 43 -14 17 -87 101 -161 187 -268 307
-406 510 -348 510 6 0 48 -37 92 -82z m904 -516 c8 -55 -60 -101 -98 -67 -25
23 -25 35 -1 35 11 0 29 14 41 31 25 34 53 35 58 1z m-302 -386 c1 0 3 -129 5
-286 4 -261 3 -285 -13 -288 -32 -6 -46 38 -57 184 -6 77 -11 197 -11 266 0
112 2 127 18 131 13 4 52 -1 58 -7z m329 -14 c7 -4 11 -102 10 -282 l0 -275
-56 -3 c-81 -4 -101 15 -110 104 -6 67 -1 427 7 452 4 13 131 17 149 4z m308
1 c2 -5 1 -46 -3 -93 -5 -47 -11 -165 -15 -263 -8 -205 -10 -210 -84 -205
l-46 3 -6 275 c-3 151 -3 278 -1 283 2 4 36 7 77 7 41 0 76 -3 78 -7z m-2737
-273 c0 -69 2 -172 5 -230 l4 -105 -26 -3 c-51 -6 -55 9 -62 229 -4 128 -2
209 4 221 8 14 19 18 42 16 l32 -3 1 -125z m9288 -792 c-4 -40 -14 -125 -24
-188 l-16 -115 -1310 2 c-720 1 -3147 1 -5394 1 -7360 -2 -7986 -2 -8775 3
-429 2 -1297 0 -1930 -5 -986 -8 -1152 -7 -1161 5 -24 31 -98 321 -87 342 13
23 135 -3 174 -39 9 -8 52 -19 95 -25 186 -23 15373 -33 17612 -11 l682 7 41
48 c32 36 47 47 70 47 l30 0 -7 -72z m-11590 -896 c-2 -273 -14 -303 -234
-552 -50 -57 -192 -226 -217 -259 -16 -21 -310 336 -366 444 -51 100 -59 140
-64 325 -5 142 -3 177 8 186 9 6 58 9 132 6 l119 -4 -5 -32 c-3 -17 -12 -65
-22 -106 -23 -100 -15 -207 16 -232 31 -26 168 -25 199 0 23 19 50 110 50 173
0 28 7 42 36 67 31 28 36 37 30 62 -8 41 14 50 117 50 83 0 86 1 128 36 39 32
44 34 58 19 13 -13 16 -43 15 -183z m1572 148 c32 0 58 -6 67 -14 10 -10 15
-55 20 -165 3 -83 11 -160 17 -170 11 -22 57 -29 215 -33 l100 -3 0 184 c0
184 3 201 35 181 11 -7 15 -45 20 -169 4 -108 11 -165 19 -175 10 -12 33 -16
96 -16 45 0 84 3 88 6 3 4 -1 20 -10 37 -24 47 -13 315 13 334 44 32 54 0 57
-180 2 -118 -1 -158 -12 -170 -11 -14 -11 -18 2 -23 8 -3 30 -4 48 -2 l33 3
-3 181 c-2 149 0 182 12 192 10 9 46 12 113 10 l99 -3 7 -45 c3 -25 12 -166
18 -315 6 -148 17 -340 25 -425 19 -205 20 -360 2 -360 -34 0 -79 68 -112 170
-38 118 -54 129 -150 105 -36 -10 -91 -14 -149 -13 l-91 3 0 -192 c0 -143 3
-195 13 -205 19 -19 237 -21 253 -2 10 12 9 45 -5 152 -20 168 -20 192 -2 192
15 0 56 -46 56 -62 0 -5 14 -37 30 -72 35 -73 90 -129 143 -146 49 -15 49 -40
-1 -111 -21 -30 -67 -106 -102 -169 -34 -63 -82 -149 -105 -190 -99 -175 -227
-446 -342 -722 -9 -21 -20 -38 -24 -38 -10 0 -38 40 -84 125 -21 39 -87 147
-145 240 -59 94 -164 267 -234 385 -168 281 -281 465 -350 570 -65 98 -75 125
-55 155 8 12 32 49 53 81 47 70 91 192 106 289 5 39 10 169 10 290 1 121 4
238 8 260 8 46 31 57 101 50 24 -3 68 -5 97 -5z m2857 -2 c14 -12 15 -24 7
-108 -5 -52 -10 -147 -10 -211 0 -128 -6 -143 -57 -137 l-28 3 0 218 c0 205 1
220 19 233 24 17 47 18 69 2z m331 2 l26 -10 0 -220 0 -220 -23 -5 c-12 -3
-52 -5 -87 -3 l-65 3 -7 40 c-11 61 -9 370 2 399 9 24 14 26 69 26 33 0 71 -4
85 -10z m256 -10 c13 -8 15 -42 13 -217 -2 -184 -4 -209 -20 -220 -20 -16 -67
-17 -94 -3 -18 10 -19 23 -19 224 0 117 3 216 7 219 10 10 96 8 113 -3z m2305
-5 c528 -4 1174 -11 1435 -16 261 -5 779 -11 1150 -14 632 -6 772 -12 805 -35
20 -15 439 -29 475 -16 8 3 24 4 35 3 11 -1 20 4 20 12 0 15 43 31 72 27 21
-4 20 -28 -3 -151 -64 -335 -268 -918 -547 -1560 -203 -468 -473 -969 -669
-1242 -40 -57 -98 -138 -128 -180 -64 -92 -188 -258 -297 -399 -43 -55 -91
-118 -108 -140 -61 -80 -342 -422 -428 -522 -127 -147 -549 -574 -767 -777
-571 -532 -1164 -951 -1914 -1354 -447 -240 -880 -445 -1181 -559 -803 -305
-1381 -447 -2135 -521 -298 -30 -536 -41 -871 -41 -433 0 -775 26 -1179 91
-440 71 -664 121 -1109 249 -364 104 -612 197 -1246 467 -151 65 -696 336
-835 415 -329 190 -825 517 -1125 741 -207 155 -593 487 -909 781 -218 203
-605 618 -807 866 -387 474 -544 716 -1005 1545 -195 350 -475 1007 -609 1425
-104 327 -205 696 -233 854 l-5 28 44 -7 c24 -4 68 -14 97 -21 29 -8 66 -14
81 -14 15 0 31 -3 35 -7 11 -11 49 -12 238 -6 92 3 165 9 163 13 -3 4 48 8
113 9 714 8 1724 23 2037 31 444 11 892 17 1777 26 l617 6 25 -49 c13 -27 51
-89 83 -139 33 -49 82 -127 110 -174 27 -47 112 -181 187 -299 76 -118 184
-291 241 -385 277 -463 533 -878 622 -1011 33 -49 80 -124 104 -165 70 -119
303 -484 514 -803 66 -100 169 -263 230 -363 119 -195 301 -478 514 -798 74
-110 160 -244 191 -296 129 -213 172 -284 300 -490 73 -118 184 -295 247 -392
63 -98 146 -233 185 -300 117 -203 211 -367 267 -470 30 -54 59 -98 66 -98 15
0 222 332 393 630 123 216 720 1214 853 1428 97 156 490 742 718 1072 55 80
126 186 158 235 31 50 113 175 181 278 69 104 172 264 231 357 58 93 147 233
198 312 50 79 111 175 135 214 103 168 277 450 323 524 28 44 83 133 124 197
40 65 122 199 183 298 145 238 386 599 436 654 40 42 42 43 89 37 26 -3 480
-8 1008 -11z m-3145 -665 c21 -11 131 -149 220 -275 34 -49 109 -148 165 -220
56 -71 114 -149 128 -172 33 -52 67 -152 67 -195 0 -41 -55 -168 -99 -228 -47
-65 -135 -156 -180 -186 -37 -24 -41 -24 -68 -11 -44 24 -65 52 -151 208 -133
242 -215 410 -219 453 -3 26 6 85 27 164 17 68 29 126 26 129 -3 4 -32 -12
-63 -34 -87 -61 -226 -133 -256 -133 -23 0 -27 4 -27 28 0 36 37 91 120 177
37 39 113 123 169 188 57 64 107 117 113 117 5 0 18 -4 28 -10z m-3875 -210
c83 -11 200 -23 260 -26 61 -3 120 -10 132 -16 12 -6 34 -7 50 -3 55 15 75 12
84 -13 18 -47 9 -70 -62 -158 -69 -87 -121 -177 -173 -303 -15 -34 -32 -68
-37 -75 -13 -14 -53 -90 -135 -251 -97 -192 -186 -345 -199 -345 -28 0 -171
177 -302 373 -113 170 -234 424 -220 461 3 8 19 17 35 21 55 12 109 70 157
169 56 118 112 173 183 179 26 2 54 4 62 5 8 1 83 -7 165 -18z m-515 -27 c0
-10 -8 -30 -18 -44 -9 -15 -29 -45 -44 -67 -16 -23 -28 -47 -28 -54 -1 -7 -6
-23 -13 -36 -13 -22 -14 -22 -30 -4 -10 11 -22 34 -27 53 -8 28 -6 40 15 75
38 66 145 122 145 77z m3563 -139 c25 -8 57 -27 71 -40 40 -41 100 -235 99
-325 -1 -55 -16 -87 -103 -209 -196 -278 -196 -280 -203 -710 -6 -378 -28
-543 -68 -503 -18 18 -69 183 -84 273 -15 86 -15 311 0 378 4 17 5 32 2 32 -8
0 -62 -108 -70 -140 -16 -63 -155 -264 -249 -360 -140 -143 -311 -274 -351
-268 -41 6 -29 32 27 62 60 30 225 193 352 346 98 119 107 133 148 240 72 189
134 292 272 451 97 111 117 136 185 230 72 100 99 159 99 214 0 45 -80 202
-125 245 -35 34 -39 35 -113 35 -58 0 -90 -6 -130 -23 -68 -29 -91 -23 -32 9
49 26 186 77 211 78 8 1 36 -6 62 -15z m-1078 -44 c28 -55 14 -118 -20 -90
-22 18 -20 120 1 120 2 0 10 -13 19 -30z m-1158 -270 c27 -47 72 -120 99 -163
27 -43 55 -90 63 -105 7 -15 22 -36 32 -47 12 -13 16 -29 12 -43 -6 -25 -23
-30 -23 -7 0 8 6 15 12 15 7 0 -2 13 -20 29 -17 17 -32 38 -33 48 -1 12 -3 10
-9 -7 l-7 -25 -8 28 c-4 16 -18 32 -30 37 -20 8 -23 14 -18 49 4 27 2 41 -6
41 -6 0 -11 -12 -11 -27 l-1 -28 -13 30 c-19 44 -78 100 -106 101 -24 1 -69
-40 -70 -64 0 -15 -21 -54 -34 -64 -5 -3 -16 -4 -24 0 -10 3 -13 1 -8 -6 4 -8
-6 -20 -28 -33 -20 -12 -36 -24 -36 -28 0 -12 -81 -31 -107 -25 -17 5 -24 3
-20 -3 7 -12 -41 -28 -52 -18 -12 13 44 45 70 41 29 -5 67 26 144 118 22 27
45 53 50 60 6 6 27 43 48 83 30 58 37 82 38 130 l0 58 23 -45 c12 -25 45 -83
73 -130z m-517 -158 c0 -7 -4 -10 -10 -7 -5 3 -10 16 -10 28 0 18 2 19 10 7 5
-8 10 -21 10 -28z m40 -67 c0 -8 -7 -15 -16 -15 -13 0 -15 -7 -11 -35 3 -19 2
-35 -4 -35 -5 0 -9 6 -9 14 0 7 -3 27 -6 44 -5 24 -2 31 12 35 32 8 34 7 34
-8z m15 -35 c4 -6 11 -8 16 -5 14 9 11 -13 -4 -27 -8 -7 -12 -21 -9 -32 3 -13
1 -17 -9 -14 -14 5 -31 66 -23 80 7 11 22 10 29 -2z m710 -131 c6 -19 0 -38
-9 -28 -10 12 -16 49 -7 49 5 0 13 -9 16 -21z m35 -49 c0 -5 -2 -10 -4 -10 -3
0 -8 5 -11 10 -3 6 -1 10 4 10 6 0 11 -4 11 -10z m20 -30 c0 -5 -5 -10 -11
-10 -5 0 -7 5 -4 10 3 6 8 10 11 10 2 0 4 -4 4 -10z"/>
<path d="M10845 19310 c3 -5 8 -10 11 -10 2 0 4 5 4 10 0 6 -5 10 -11 10 -5 0
-7 -4 -4 -10z"/>
<path d="M11058 19193 c7 -3 16 -2 19 1 4 3 -2 6 -13 5 -11 0 -14 -3 -6 -6z"/>
<path d="M10395 19153 c-31 -8 -43 -22 -38 -43 3 -11 7 -20 9 -20 9 0 49 25
56 35 5 6 8 5 8 -2 0 -17 45 -17 59 0 20 24 -40 43 -94 30z"/>
<path d="M10253 19100 c-41 -16 -27 -33 20 -27 26 4 48 2 54 -4 8 -8 13 -7 18
0 4 7 -6 14 -24 17 -17 4 -28 10 -25 15 7 11 -14 11 -43 -1z"/>
<path d="M11270 19045 c0 -25 5 -45 10 -45 6 0 10 20 10 45 0 25 -4 45 -10 45
-5 0 -10 -20 -10 -45z"/>
<path d="M11363 18857 c9 -52 11 -53 33 -43 29 13 31 37 4 54 -11 7 -20 19
-20 27 0 8 -6 15 -13 15 -11 0 -12 -11 -4 -53z"/>
<path d="M12060 18670 c0 -5 20 -10 45 -10 45 0 45 0 45 -34 0 -32 2 -34 27
-27 29 8 44 31 20 31 -9 0 -24 11 -35 25 -15 19 -29 25 -61 25 -23 0 -41 -4
-41 -10z"/>
<path d="M12240 18582 c0 -36 3 -43 17 -40 25 5 26 29 3 58 l-20 25 0 -43z"/>
<path d="M10050 18090 c0 -5 4 -10 9 -10 5 0 15 -2 23 -5 7 -3 22 1 33 9 19
14 17 15 -22 16 -24 0 -43 -4 -43 -10z"/>
<path d="M11820 18060 c0 -5 5 -10 10 -10 6 0 10 5 10 10 0 6 -4 10 -10 10 -5
0 -10 -4 -10 -10z"/>
<path d="M12045 17708 c-88 -4 -171 -11 -185 -16 -23 -9 -23 -9 -5 -19 37 -20
199 -33 408 -33 186 0 237 6 192 24 -8 3 -15 9 -14 13 7 43 4 44 -118 41 -65
-2 -190 -6 -278 -10z"/>
<path d="M12616 16023 c-13 -13 -6 -73 8 -73 20 0 31 19 17 33 -7 7 -7 14 -1
23 7 8 6 13 -4 17 -8 3 -17 3 -20 0z"/>
<path d="M7818 15313 c7 -3 16 -2 19 1 4 3 -2 6 -13 5 -11 0 -14 -3 -6 -6z"/>
<path d="M8078 15223 c7 -3 16 -2 19 1 4 3 -2 6 -13 5 -11 0 -14 -3 -6 -6z"/>
<path d="M8268 15163 c7 -3 16 -2 19 1 4 3 -2 6 -13 5 -11 0 -14 -3 -6 -6z"/>
<path d="M8316 15151 c-20 -8 -20 -8 0 -13 10 -3 27 -9 37 -13 10 -4 17 -3 17
4 0 6 -7 11 -16 11 -8 0 -12 5 -9 10 7 12 -2 12 -29 1z"/>
<path d="M8390 15124 c0 -2 9 -8 20 -14 11 -6 20 -7 20 -2 0 6 -9 12 -20 15
-11 3 -20 3 -20 1z"/>
<path d="M8532 14430 c-85 -22 -184 -49 -221 -60 -125 -37 -221 -37 -816 2
-381 24 -554 13 -845 -56 -152 -36 -270 -54 -400 -61 -217 -11 -258 -21 -158
-39 64 -12 543 28 713 59 173 32 304 36 700 19 508 -21 648 -16 825 30 74 19
187 48 250 65 81 21 152 31 243 37 70 4 129 10 132 14 4 6 -212 31 -255 30 -8
0 -84 -18 -168 -40z"/>
<path d="M9665 14343 c-16 -2 -80 -15 -142 -29 -165 -36 -299 -53 -478 -60
-137 -5 -190 -13 -365 -51 -113 -24 -254 -60 -315 -79 -169 -53 -267 -65 -725
-89 -162 -9 -311 -19 -330 -23 -84 -18 27 -32 435 -53 323 -16 452 -1 738 85
153 47 278 71 467 91 339 35 406 46 565 94 228 70 275 86 275 97 0 22 -42 28
-125 17z"/>
<path d="M9350 13994 c-162 -19 -254 -42 -405 -101 -338 -133 -607 -199 -900
-223 -328 -26 -385 -35 -385 -60 0 -24 181 -52 290 -44 211 15 342 37 510 86
58 17 125 36 150 43 25 7 142 51 260 98 285 114 399 135 550 103 75 -15 168
-8 218 18 34 17 61 60 48 74 -8 7 -277 12 -336 6z"/>
<path d="M2780 13791 c-61 -19 69 -33 360 -41 162 -5 351 -15 420 -24 280 -34
878 -49 961 -24 38 11 52 34 27 43 -7 2 -184 9 -393 15 -209 6 -504 17 -655
25 -288 16 -677 18 -720 6z"/>
<path d="M12316 13183 c-11 -11 -6 -23 9 -23 8 0 15 4 15 9 0 13 -16 22 -24
14z"/>
<path d="M11916 12895 c-4 -10 1 -15 14 -15 13 0 18 5 14 15 -4 8 -10 15 -14
15 -4 0 -10 -7 -14 -15z"/>
<path d="M11820 12800 c0 -5 5 -10 10 -10 6 0 10 5 10 10 0 6 -4 10 -10 10 -5
0 -10 -4 -10 -10z"/>
<path d="M7810 12589 c0 -24 23 -21 28 4 2 10 -3 17 -12 17 -10 0 -16 -9 -16
-21z"/>
<path d="M10971 12592 c-1 -8 -34 -81 -75 -162 -75 -152 -153 -277 -265 -430
-72 -98 -74 -118 -17 -178 80 -86 180 -212 224 -284 26 -43 50 -77 53 -78 4 0
10 75 13 168 19 541 32 714 66 889 7 34 10 67 7 75 -5 11 -6 11 -6 0z"/>
<path d="M11731 12544 c0 -11 3 -14 6 -6 3 7 2 16 -1 19 -3 4 -6 -2 -5 -13z"/>
<path d="M7840 12520 c0 -5 5 -10 10 -10 6 0 10 5 10 10 0 6 -4 10 -10 10 -5
0 -10 -4 -10 -10z"/>
<path d="M8328 11693 c-9 -27 -13 -90 -12 -209 1 -200 1 -199 107 -286 80 -67
109 -73 132 -28 21 40 19 61 -15 195 -20 82 -46 151 -86 229 -31 61 -60 117
-66 124 -20 24 -46 13 -60 -25z"/>
<path d="M9788 10533 c-22 -6 -26 -31 -32 -226 -5 -135 -3 -159 9 -164 9 -3
54 -2 100 2 l85 7 0 194 0 194 -72 -1 c-40 -1 -81 -3 -90 -6z"/>
<path d="M10113 10530 c-32 -13 -38 -47 -38 -197 0 -110 3 -135 17 -149 19
-19 134 -31 193 -20 52 10 65 47 65 184 0 117 -11 167 -40 182 -23 12 -167 12
-197 0z m105 -182 c-2 -48 -7 -63 -18 -63 -19 0 -24 26 -15 81 4 29 11 44 21
44 12 0 14 -13 12 -62z"/>
<path d="M7656 10288 c-13 -18 -16 -51 -16 -160 0 -164 2 -168 112 -168 l68 0
-1 143 c-1 78 -4 156 -8 172 -6 29 -8 30 -73 33 -59 3 -68 1 -82 -20z"/>
<path d="M7445 10260 c-16 -4 -54 -8 -82 -9 -65 -1 -65 -1 -61 -176 l3 -130
36 1 c50 1 144 47 166 80 14 21 19 53 22 136 l3 108 -28 -1 c-16 -1 -42 -5
-59 -9z"/>
<path d="M7708 7963 c-24 -6 -28 -25 -34 -152 -7 -163 5 -193 71 -177 28 7 41
57 50 198 9 131 -6 153 -87 131z"/>
<path d="M9803 7183 c-47 -4 -52 -6 -58 -32 -9 -40 14 -321 28 -351 11 -23 18
-25 87 -28 107 -3 106 -5 92 125 -6 59 -14 145 -18 191 -6 76 -8 84 -31 93
-13 5 -30 8 -36 7 -7 -1 -35 -3 -64 -5z"/>
<path d="M5702 18970 c0 -14 2 -19 5 -12 2 6 2 18 0 25 -3 6 -5 1 -5 -13z"/>
<path d="M5708 18773 c7 -3 16 -2 19 1 4 3 -2 6 -13 5 -11 0 -14 -3 -6 -6z"/>
<path d="M3300 16950 c0 -5 5 -10 10 -10 6 0 10 5 10 10 0 6 -4 10 -10 10 -5
0 -10 -4 -10 -10z"/>
</g>
</svg>
